<svg xmlns="http://www.w3.org/2000/svg" viewBox="0 0 400 400"><path d="M148.5 95.4C148 95.9 147.6 96.7 147.6 97.1 147.6 97.6 147.3 98.1 147 98.4 146.5 98.8 146.4 98.8 146.4 98.2 146.4 97.4 145.5 97.4 144.8 98.4 144.5 98.8 144 99.2 143.7 99.2 142.9 99.2 140.3 101.9 140.6 102.4 141.1 103.2 140 104 139.2 103.5 138.3 102.9 137.1 104 137.5 105 137.7 105.6 137.6 105.7 137.1 105.5 136.6 105.3 136.5 105.5 136.7 106 136.8 106.5 136.7 106.8 136.4 106.8 136.2 106.8 136 106.6 136 106.4 136 106 134.8 106.3 134.4 106.8 134.3 107 133.8 107.3 133.4 107.6 132.7 108 132.8 108 134.2 107.8 135.6 107.6 135.7 107.6 135.2 108.2 134.9 108.5 134.4 108.8 134 108.8 133.5 108.8 133.2 109 133.2 109.2 133.2 109.4 133 109.6 132.8 109.6 132.6 109.6 132.4 109.3 132.4 109 132.4 108.1 131.8 108.3 130.6 109.5 130 110.1 129.7 110.8 129.8 111.2 130 111.9 129.9 111.9 128.6 111.7 127.4 111.5 127.2 111.6 127.2 112.3 127.2 112.8 127 113.2 126.8 113.2 126.6 113.2 126.3 113.7 126.1 114.3 125.8 115 125.7 115.1 125.6 114.7 125.6 114.3 125.3 114 125 114 124 114 122.6 115.7 122.7 116.6 122.8 117.4 122.7 117.5 121.8 117.3 120.7 117.1 118.6 118.9 119 119.8 119.1 120.1 119 120.4 118.8 120.4 118.6 120.4 118.4 120.2 118.4 120 118.4 119.4 117.5 119.5 116.8 120.3 116.5 120.7 115.8 121.3 115.4 121.5 114.7 121.9 114.7 122 115.3 122 116.1 122 116.2 122.4 115.5 123.1 114.9 123.8 114.4 123.7 114.4 123 114.4 122.7 114.2 122.4 114 122.4 113.2 122.4 111.6 124.3 111.8 125.1 111.8 125.5 111.8 125.6 111.7 125.3 111.5 124.6 110.5 124.7 109.8 125.4 109.3 125.9 109.2 133.6 109.3 180.7L109.4 235.4 150.6 235.4 191.8 235.4 191.9 184.9C192 140.2 191.9 134.4 191.4 134.4 190.9 134.4 190.8 133.7 190.8 130.8 190.8 127.9 190.9 127.2 191.4 127.2 191.7 127.2 192 126.9 192 126.6 192 125.6 190.9 124.7 189.7 124.9 188.9 125 188.6 124.8 188.6 124.4 188.6 123.5 187 121.6 186.3 121.6 185.9 121.6 185.7 121.8 185.9 122.2 186 122.5 185.9 122.8 185.7 122.8 185.4 122.8 185.1 122.3 184.9 121.7 184.5 119.9 182.8 118.8 182.8 120.3 182.8 121.2 181.6 119.8 181.6 118.9 181.6 118.3 179.8 116.4 179.2 116.4 179 116.4 178.8 116.7 178.8 117.1 178.8 117.7 178.7 117.6 178.2 116.9 177.8 116.4 177.7 115.8 177.8 115.6 178.1 115.2 176.3 113.2 175.6 113.2 175.4 113.2 175.2 113.5 175.2 113.8 175.2 114.1 175.4 114.4 175.6 114.4 175.9 114.4 175.9 114.6 175.8 114.8 175.4 115.4 174.3 114.1 174.6 113.4 174.7 113 174.4 112.3 173.8 111.8 172.7 110.7 172 110.5 172 111.4 172 112.4 171.2 112.1 170.9 110.9 170.7 109.8 169.6 107.9 169.6 108.6 169.6 108.8 169.4 108.6 169.1 108.2 168.5 107.5 168.5 107.5 168.1 108.2 167.7 108.9 167.7 108.9 167.4 108.1 166.9 106.4 164.8 104.8 164.8 106 164.8 106.4 164.6 106.3 164.2 106 163.9 105.7 163.6 105.2 163.6 104.8 163.6 104.4 163.3 103.7 162.9 103.3 162.1 102.4 161.2 102.1 161.2 102.8 161.2 103 161 103.2 160.8 103.2 160.5 103.2 160.4 103 160.5 102.7 160.8 102.1 159.2 100 158.5 100 158.2 100 158 100.3 158 100.6 158 100.9 157.8 101.2 157.6 101.2 157.2 101.2 156.6 100 156.8 99.3 156.8 98.7 155 96.8 154.4 96.8 154.2 96.8 154 97.1 154 97.4 154 98 153.9 98 153.4 97.6 153.1 97.3 152.8 96.8 152.8 96.3 152.8 94.8 151 93.8 150.7 95.1 150.5 95.8 150.5 95.8 150.4 95.1 150.4 94.1 149.6 94.3 148.5 95.4M346.8 151C346.8 151.5 340.2 151.6 289.6 151.6L232.4 151.6 232.4 193.6 232.4 235.6 242 235.6 251.6 235.6 251.6 202 251.6 168.4 299.2 168.4C330.5 168.4 346.8 168.5 347 168.8 347.1 169 347.5 169.2 347.8 169.2 348.7 169.2 348.7 151 347.8 150.6 346.9 150.3 346.8 150.3 346.8 151" fill="#ffb900"/><path d="M150.8 51.3C150.8 51.9 149.2 53.5 147.4 54.7 146.7 55.1 145.7 55.9 145.2 56.4 143.5 58 140.3 60.5 138.8 61.6 138 62.1 137.1 62.8 136.8 63.2 136.5 63.5 135.5 64.3 134.7 64.9 133.9 65.5 133 66.2 132.7 66.5 132.4 66.8 129.5 69.2 126.2 71.8 122.9 74.4 120.1 76.7 120.1 76.9 120 77.1 119.8 77.2 119.6 77.2 119.2 77.2 118.4 77.8 116.4 79.6 115.8 80.2 114.9 80.9 114.5 81.2 114.1 81.5 113.2 82.3 112.4 82.9 111.7 83.5 110.8 83.9 110.5 83.8 110.2 83.7 110 83.9 110 84.3 110 85.1 107 87.4 106.4 87 106.2 86.9 106 87 106 87.3 106 88 103.8 90 103 90 102.7 90 102.4 90.2 102.4 90.4 102.4 91 101.8 91.5 100 92.8 99.2 93.3 98.3 94 98 94.4 96.8 95.6 95.1 96.8 94.8 96.6 94.6 96.5 94.4 96.6 94.4 96.8 94.4 97.4 94.2 97.6 89.4 101.4 87.2 103.1 85.3 104.7 85.2 104.8 85.1 104.9 84.4 105.5 83.6 106 82.8 106.5 81.9 107.2 81.6 107.6 81.3 108 80.4 108.7 79.6 109.2 78.8 109.7 77.9 110.5 77.6 110.8 77.3 111.2 76.6 111.7 76.2 112 75.7 112.3 74.5 113.3 73.6 114.1 68.7 118.1 67.8 118.8 67.1 118.8 66.7 118.8 66.4 119 66.4 119.2 66.4 119.7 64.9 121.3 63.9 121.8 63.2 122.2 61 124.1 58.3 126.5 57.4 127.3 56.5 128 56.3 128 56.1 128 55.6 128.4 55.2 128.8 54.8 129.2 53.7 130.1 52.8 130.7 51.9 131.4 51.3 132 51.5 132.1 52.2 132.9 75.7 132.4 77 131.6 77.8 131.1 78.5 130.8 78.7 131 78.9 131.1 79.2 130.9 79.3 130.4 79.5 129.6 85 125.3 85.6 125.5 85.8 125.6 86 125.4 86 125.1 86 124.8 86.9 124 87.9 123.2 89 122.4 90 121.6 90.3 121.3 91.2 120.5 92.4 119.9 92.8 120.2 93 120.3 93.2 120.1 93.2 119.7 93.2 119.3 94.1 118.4 95.1 117.6 96.2 116.8 97.4 115.8 98 115.3 98.5 114.8 99.2 114.4 99.5 114.4 99.7 114.4 100 114.2 100.1 114.1 100.3 113.3 106.4 108.8 106.8 109 107 109.1 107.2 109 107.2 108.8 107.2 108.5 107.4 108.1 107.7 107.9 108.6 107 113.1 103.6 113.3 103.6 113.5 103.6 114.2 102.9 115.1 102.2 115.9 101.4 117.8 99.9 119.2 98.9 120.6 97.9 122.1 96.7 122.4 96.4 122.7 96 123.6 95.3 124.4 94.8 125.2 94.3 126 93.6 126.2 93.4 126.5 93.2 127.3 92.6 128 92 130.6 90 134.2 87.2 135.5 86.2 136.6 85.3 140.5 82.3 144.2 79.5 144.8 79 145.5 78.4 145.8 78.2 146 78 147 77.2 148 76.4 149 75.6 149.9 74.9 149.9 74.7 150.2 74 151.5 74.5 152.7 75.6 153.4 76.3 154.1 76.8 154.3 76.8 154.5 76.8 155.1 77.3 155.8 77.9 156.5 78.5 158.1 79.8 159.4 80.8 160.7 81.8 162.2 82.9 162.6 83.3 163 83.7 165.1 85.3 167.1 86.7 169.1 88.2 170.8 89.6 170.8 89.9 170.8 90.2 171 90.4 171.3 90.4 171.9 90.4 175.2 92.8 176.4 94 176.7 94.4 177.6 95.1 178.4 95.6 180.3 96.9 185.9 101.3 187.3 102.6 187.9 103.1 188.6 103.6 188.8 103.6 188.9 103.6 189.4 103.9 189.9 104.3 190.3 104.7 191.3 105.5 192 106 194.2 107.7 194.8 108.3 194.8 108.8 194.8 109 195 109.1 195.2 109 195.4 108.9 196.5 109.4 197.5 110.3 198.5 111.2 201.3 113.3 203.6 115 205.9 116.8 208.1 118.5 208.4 118.9 208.8 119.3 209.3 119.6 209.4 119.6 209.6 119.6 210.3 120.1 211 120.7 211.7 121.3 212.8 122.3 213.6 122.8 215.2 123.9 215.9 124.5 218 126.2 218.8 126.9 220.8 128.5 222.6 129.8L225.8 132.2 292.5 132.3C333.4 132.4 359.2 132.3 359.2 132 359.2 131.8 358.6 131.2 357.9 130.7 357.2 130.2 356.5 129.7 356.4 129.6 356.3 129.5 354.9 128.3 353.2 127 351.6 125.7 350 124.4 349.8 124.2 349.5 124 348.7 123.4 348 122.8 347.3 122.3 346.3 121.4 345.8 121 345.4 120.5 344.1 119.6 343.1 118.8 342.1 118.1 341.2 117.2 341.2 116.9 341.2 116.6 341.1 116.4 340.9 116.5 340.2 116.7 337.6 114.6 337.6 113.9 337.6 113.5 337.4 113.3 337.2 113.4 336.7 113.7 335 112.7 334 111.6 333.7 111.3 332.8 110.5 332 109.9 331.2 109.4 330.2 108.6 329.7 108.1 328.5 107.1 327.7 106.4 325.6 104.8 324.6 104 323.4 103.1 323 102.7 322.6 102.4 320.7 100.9 318.8 99.4 316.9 97.9 315.2 96.4 315 96.2 314.7 96 313.9 95.4 313.2 94.8 312.5 94.3 311.5 93.5 311 93.1 310.6 92.6 309.6 91.8 308.8 91.3 308 90.7 307.1 90 306.8 89.7 306.5 89.4 305.3 88.4 304.1 87.5 302.9 86.7 301.9 85.7 301.7 85.4 301.6 85.1 301.3 84.8 301 84.8 300.8 84.8 299.8 84.1 298.8 83.2 297.9 82.3 297 81.6 296.9 81.6 296.4 81.6 294 79.3 294 78.9 294 78.7 293.6 78.4 293.1 78.3 292.6 78.1 291.8 77.7 291.4 77.3 290.5 76.5 285.4 72.4 281.2 69.2 280.2 68.4 279.1 67.5 278.8 67.2 278.5 66.9 277.5 66.1 276.7 65.5 275.9 64.9 275 64.2 274.7 63.9 274.4 63.6 273.4 62.8 272.4 62 271.4 61.3 270.2 60.3 269.8 59.9 269.4 59.5 267.7 58.1 266 56.9 264.4 55.7 262.6 54.2 262.2 53.8 261.8 53.3 261 52.7 260.5 52.4 260 52.2 259.6 51.7 259.6 51.4 259.6 50.9 252.7 50.8 205.2 50.8 160.1 50.8 150.8 50.9 150.8 51.3M97.7 135.8C97.6 136 97.1 136.5 96.5 136.9 95.9 137.2 94.8 138.1 94 138.8 93.2 139.5 92.3 139.9 91.9 139.8 91.5 139.7 91.2 139.9 91.2 140.3 91.2 140.6 91 141.1 90.7 141.3 89.7 142.3 85.3 145.6 85 145.6 84.9 145.6 84.3 146 83.8 146.6 83.3 147.1 82.3 147.9 81.6 148.3L80.4 149 80.4 192.3 80.4 235.6 89.3 235.6 98.2 235.6 98.1 203.5C98 161 97.8 135.3 97.7 135.8M202 186.2L202 235.6 210.7 235.6 219.4 235.6 219.2 192.6 219 149.6 215.2 146.6C213.1 145 210.9 143.2 210.4 142.7 209.8 142.2 208.9 141.5 208.3 141.1 207.6 140.7 206.8 140.1 206.5 139.8 204.3 138 202.6 136.8 202.3 136.8 202.2 136.8 202 158.8 202 186.2M122.4 253.6C122.1 253.8 121.3 254 120.6 254 119.3 254 117.2 254.8 117.2 255.3 117.2 255.5 116.9 255.6 116.4 255.6 116 255.6 115.5 256.1 115.1 256.8 114.8 257.5 114.5 258 114.3 258 114.1 258 114 258.4 114 258.8 114 259.2 113.8 259.6 113.6 259.6 113.4 259.6 113.2 260.7 113.2 262.2L113.2 264.8 111.3 264.9 109.4 265 109.3 267.1C109.1 269.5 109.7 270.4 111.3 270.4 113.1 270.4 113.2 270.7 113.2 281.5L113.2 291.6 117.1 291.5 121 291.4 121.1 281.3 121.2 271.2 124.2 271.2 127.2 271.2 127.1 268.1 127 265 123.7 264.9C120 264.8 120 264.8 121.1 262.1 121.5 261 121.9 260.4 122.4 260.4 122.8 260.4 123.3 260.2 123.4 260 123.5 259.8 124.4 259.6 125.4 259.6L127.2 259.6 127.2 256.8 127.2 254 125.8 254C125.1 254 124.3 253.8 124.2 253.6 123.9 253.1 123.2 253.1 122.4 253.6M200.4 253.6C200.4 253.8 200.1 254 199.7 254 198.2 254 197.2 259.6 198.5 261.2 200.1 263.2 203.5 263.4 205.6 261.7 207.8 259.8 207.7 255.3 205.3 254.2 204.8 254 204.4 253.7 204.4 253.5 204.4 253.3 203.5 253.2 202.4 253.2 201.3 253.2 200.4 253.4 200.4 253.6M293 254.1C292.9 254.6 292.8 263.2 292.9 273.2L293 291.4 296.5 291.5 300 291.6 300 272.4 300 253.2 296.6 253.2C293.4 253.2 293.2 253.3 293 254.1M36.2 254.5C36.1 254.8 36 263.2 36.1 273.2L36.2 291.4 40.1 291.5 44 291.6 44 285.2 44 278.8 48.8 278.8C54.9 278.8 56.9 278.2 59.8 275.4 61 274.2 62 273 62 272.7 62 272.3 62.2 271.9 62.4 271.8 63.5 271.1 63.5 261.2 62.4 261.2 62.2 261.2 62 260.9 62 260.6 62 259.8 58.6 256.4 57.8 256.4 57.5 256.4 57.2 256.2 57.2 256 57.2 255.8 56.8 255.6 56.4 255.6 56 255.6 55.6 255.4 55.6 255.2 55.6 254.3 36.6 253.5 36.2 254.5M51.2 261.6C51.2 261.8 51.4 262 51.7 262 53.2 262 54.8 264.4 54.8 266.6 54.8 267.8 54.7 268.8 54.5 268.8 54.3 268.8 54 269.2 53.8 269.7 53.6 270.2 53 270.8 52.5 271 52 271.2 51.6 271.5 51.6 271.7 51.6 271.9 49.9 272 47.8 272L44 272 44 266.6 44 261.2 47.6 261.2C49.7 261.2 51.2 261.4 51.2 261.6M75 265C74.4 265.3 73.6 266 73.2 266.4 72.3 267.5 72.1 267.4 71.9 266.1 71.8 264.7 66.3 264.1 65.3 265.5 64.8 266.2 64.5 289.6 65 291 65.2 291.5 66 291.6 69 291.6L72.8 291.6 72.8 283.6C72.8 279.2 72.9 275.6 73.1 275.6 73.3 275.6 73.7 275 74 274.3 74.6 272.7 76 272 78.7 272 81.6 272 82 271.5 82 267.9 82 265.5 81.9 264.8 81.4 264.6 80.2 264.2 76.2 264.4 75 265M91 264.8C90.3 264.9 89.3 265.3 88.7 265.5 87.3 266.1 83.6 269.7 83.6 270.6 83.6 270.9 83.4 271.2 83.2 271.2 83 271.2 82.8 271.5 82.8 272 82.8 272.4 82.6 272.9 82.4 273 82.2 273.1 82 275.4 82 278.4 82 281.6 82.2 283.6 82.4 283.6 82.6 283.6 82.8 284 82.8 284.4 82.8 284.8 83 285.2 83.2 285.2 83.4 285.2 83.6 285.5 83.6 285.9 83.6 286.3 84 286.9 84.4 287.2 84.8 287.5 85.2 288 85.2 288.3 85.2 288.5 85.7 289.1 86.4 289.5 87.1 289.9 87.6 290.3 87.6 290.5 87.6 290.7 88 290.8 88.4 290.8 88.8 290.8 89.2 291 89.2 291.2 89.2 291.4 89.7 291.6 90.4 291.6 91 291.6 91.7 291.8 91.8 292 92.1 292.5 97.4 292.5 99.2 291.9 104.1 290.3 107.6 287 107.6 283.8 107.6 283.2 107.8 282.8 108 282.8 108.2 282.8 108.4 281 108.4 278.2 108.4 275.4 108.2 273.6 108 273.6 107.8 273.6 107.6 273.1 107.6 272.5 107.6 270.4 105.1 267.3 102.1 265.7 100.2 264.6 93.4 264.1 91 264.8M136 264.7C135.5 264.8 134.8 265 134.6 265.2 134.4 265.4 134 265.6 133.7 265.6 133.4 265.6 132.7 266 132.2 266.5 131.7 267 130.9 267.7 130.5 268 130 268.3 129.6 268.8 129.6 269.1 129.6 269.4 129.5 269.6 129.3 269.6 128.9 269.6 128 271.5 128 272.3 128 272.6 127.8 272.8 127.6 272.8 127.4 272.8 127.2 274.8 127.2 278 127.2 281 127.4 283.3 127.6 283.4 127.8 283.5 128 284 128 284.4 128 284.9 128.2 285.2 128.4 285.2 128.6 285.2 128.8 285.5 128.8 285.8 128.8 286.2 129 286.7 129.3 287 129.6 287.3 130.1 287.8 130.4 288.3 131.6 289.6 133.2 290.8 133.8 290.8 134.1 290.8 134.4 291 134.4 291.2 134.4 291.4 134.9 291.6 135.6 291.6 136.2 291.6 136.9 291.8 137 292 137.1 292.2 138.8 292.4 140.6 292.4 142.4 292.4 144.1 292.2 144.2 292 144.3 291.8 144.9 291.6 145.4 291.6 146.6 291.6 149.1 290.3 150.3 289 151.1 288.1 151.6 286 150.9 286 150.7 286 150.4 285.5 150.1 284.8 149.5 283.6 146 282.9 146 284 146 284.2 145.6 284.4 145.2 284.4 144.8 284.4 144.4 284.6 144.4 284.8 144.4 285 144 285.2 143.6 285.2 143.2 285.2 142.8 285.4 142.8 285.6 142.8 286.2 140.5 286.1 138.8 285.5 136.7 284.8 135.6 283.5 135.3 281.4L135.1 279.6 143 279.6C150.1 279.6 151 279.5 151.4 278.9 152.1 278.1 152.2 274.4 151.6 274.4 151.4 274.4 151.2 273.7 151.2 272.8 151.2 271.9 151 271.2 150.9 271.2 150.7 271.2 150.4 270.7 150.3 270.1 149.5 266.1 142.3 263.4 136 264.7M159.1 265.1C156.8 265.9 154.4 268.1 154.4 269.4 154.4 270 154.2 270.4 154 270.4 152.4 270.4 154.3 278.1 156.1 278.6 156.5 278.8 156.8 279 156.8 279.2 156.8 279.4 157.2 279.6 157.6 279.6 158 279.6 158.4 279.8 158.4 280 158.4 280.2 158.9 280.4 159.6 280.4 160.3 280.4 160.8 280.6 160.8 280.8 160.8 281 161.3 281.2 162 281.2 162.7 281.2 163.2 281.4 163.2 281.6 163.2 281.8 163.5 282 163.8 282 165.5 282 166.6 284.3 165.4 285.4 164.8 286 160 286.3 160 285.7 160 284.5 155 283.9 154.5 285.1 154.4 285.5 154 286 153.7 286.3 152.9 287.2 152.7 288.7 153.3 289.3 154.1 290.2 157.2 291.6 158.3 291.6 158.7 291.6 159.3 291.8 159.4 292 160.6 293.9 168.6 291.8 171.5 288.8 172.8 287.5 173.2 286.8 173.2 285.7 173.2 285 173.4 284 173.7 283.6 174.1 283 174.1 282.7 173.7 282.3 173.4 282.1 173.2 281.3 173.2 280.7 173.2 279.5 170.9 276.8 169.8 276.8 169.5 276.8 169.2 276.6 169.2 276.4 169.2 276.2 168.7 276 168 276 167.3 276 166.8 275.8 166.8 275.6 166.8 275.4 166.3 275.2 165.6 275.2 164.9 275.2 164.4 275.1 164.4 274.9 164.4 274.7 163.8 274.3 163 274 161.5 273.4 161.1 272 162.2 271 162.8 270.3 165.8 270.2 166.2 270.8 166.3 271 166.8 271.2 167.2 271.2 167.7 271.2 168 271.4 168 271.6 168 272.2 171.2 272.1 171.8 271.4 172.1 271.1 172.4 270.6 172.4 270.2 172.4 269.9 172.6 269.6 172.8 269.6 173.6 269.6 173.2 267.5 172.2 266.6 169.7 264.5 163.1 263.7 159.1 265.1M181.1 264.9C178.6 265.9 176.4 268 176.4 269.5 176.4 270 176.2 270.4 176 270.4 175.8 270.4 175.6 271.6 175.6 273.2 175.6 274.8 175.8 276 176 276 176.2 276 176.4 276.3 176.4 276.7 176.4 277.1 176.8 277.7 177.2 278 177.7 278.3 178.3 278.8 178.6 279.1 178.9 279.4 179.3 279.6 179.6 279.6 179.8 279.6 180 279.8 180 280 180 280.2 180.5 280.4 181.2 280.4 181.9 280.4 182.4 280.6 182.4 280.8 182.4 281 182.9 281.2 183.6 281.2 184.3 281.2 184.8 281.4 184.8 281.6 184.8 281.8 185.1 282 185.4 282 187.1 282 188.5 284.4 187.4 285.4 186.8 286.1 181.6 286.3 181.6 285.7 181.6 284.5 176.9 283.9 176.5 285.1 176.4 285.5 175.9 286.1 175.5 286.6 174 288.2 175.3 290.2 178.5 291.2 179.5 291.5 180.5 291.8 180.9 292 183.3 293.3 192.8 291.3 192.8 289.5 192.8 289.4 193.3 288.8 193.8 288.2 194.5 287.6 194.8 286.8 194.8 285.8 194.8 285.1 195 284.3 195.2 284.2 195.4 284.1 195.6 283.5 195.6 283 195.6 282.4 195.4 282 195.2 282 195 282 194.8 281.5 194.8 280.8 194.8 279.6 192.7 276.8 191.7 276.8 191.4 276.8 191.2 276.6 191.2 276.4 191.2 276.2 190.7 276 190 276 189.3 276 188.8 275.8 188.8 275.6 188.8 275.4 188.3 275.2 187.6 275.2 186.9 275.2 186.4 275 186.4 274.8 186.4 274.6 186 274.4 185.6 274.4 185.2 274.4 184.8 274.2 184.8 274 184.8 273.8 184.4 273.6 184 273.6 183 273.6 182.9 271.9 183.8 271 184.4 270.3 188 270.2 188 270.8 188 271 188.3 271.2 188.8 271.2 189.2 271.2 189.7 271.4 189.8 271.6 190.5 272.8 194 271.7 194 270.2 194 269.9 194.2 269.6 194.4 269.6 195 269.6 194.9 267.6 194.3 267 192 264.7 184.7 263.6 181.1 264.9M218.6 264.8C217.9 264.9 216.9 265.3 216.3 265.5 214.9 266.1 211.2 269.7 211.2 270.6 211.2 270.9 211 271.2 210.8 271.2 210.6 271.2 210.4 271.5 210.4 272 210.4 272.4 210.2 272.9 210 273 209.8 273.1 209.6 275.3 209.6 278.2 209.6 281.1 209.8 283.3 210 283.4 210.2 283.5 210.4 284 210.4 284.4 210.4 284.9 210.6 285.2 210.8 285.2 211 285.2 211.2 285.5 211.2 285.9 211.2 286.3 211.6 286.9 212 287.2 212.4 287.5 212.8 288 212.8 288.3 212.8 288.5 213.3 289.1 214 289.5 214.7 289.9 215.2 290.3 215.2 290.5 215.2 290.7 215.6 290.8 216 290.8 216.4 290.8 216.8 291 216.8 291.2 216.8 291.4 217.3 291.6 218 291.6 218.6 291.6 219.3 291.8 219.4 292 220.7 294 229.6 291.6 232.8 288.4 237.4 283.7 237.3 272.5 232.6 267.8 229.8 265 223 263.5 218.6 264.8M249.8 265C249 265.3 248.2 265.7 248 265.9 247.5 266.7 246.4 266.8 246.4 266 246.4 265 245.6 264.8 242.7 264.8 238.9 264.8 239.2 263.8 239.3 278.4L239.4 291.4 243.3 291.5 247.2 291.6 247.2 282.2C247.2 274.1 247.3 272.8 247.8 272.8 248.1 272.8 248.4 272.7 248.4 272.5 248.4 272.1 251.5 270.4 252.2 270.4 252.5 270.4 253.4 271 254.2 271.7L255.6 273.1 255.6 282.3 255.6 291.6 259.5 291.5 263.4 291.4 263.5 281.6C263.6 275.4 263.5 271.7 263.2 271.4 263 271.2 262.8 270.7 262.8 270.3 262.8 266 255.4 263 249.8 265M273.6 264.7C273.1 264.8 272.4 265 272.2 265.2 272 265.4 271.5 265.6 271.1 265.6 270.7 265.6 270.4 265.8 270.4 266 270.4 266.2 270.2 266.4 269.9 266.4 267.7 266.4 266.5 269.8 268.1 271.7 269.1 272.8 272.8 273.4 272.8 272.4 272.8 272.2 273.2 272 273.6 272 274 272 274.4 271.8 274.4 271.6 274.4 271.4 274.8 271.2 275.4 271.2 275.9 271.2 276.5 271 276.6 270.8 276.9 270.3 278.4 270.3 278.4 270.8 278.4 270.9 278.7 271.2 279.1 271.3 280 271.5 281.2 273.7 281.2 275.1 281.2 276 281.1 276 278.2 276 276.5 276 275.2 276.2 275.2 276.4 275.2 276.6 274.5 276.8 273.6 276.8 272.7 276.8 272 277 272 277.2 272 277.4 271.6 277.6 271.2 277.6 270.8 277.6 270.4 277.8 270.4 278 270.4 278.2 270.1 278.4 269.7 278.4 268 278.4 265.6 282 265.6 284.5 265.6 287.9 267.3 290.6 270.3 291.8 271.9 292.5 277 292.6 277.4 292 277.5 291.8 278.1 291.6 278.6 291.6 279.2 291.6 279.6 291.5 279.6 291.3 279.6 290.4 281.7 290 282.4 290.8 283 291.4 283.6 291.6 285.7 291.6L288.4 291.6 288.4 281C288.4 274.2 288.3 270.4 288 270.4 287.8 270.4 287.6 270.1 287.6 269.8 287.6 268.4 286.3 266.8 284.2 265.6 282.6 264.7 276.2 264.1 273.6 264.7M198.8 278.2L198.8 291.6 202.6 291.6C207.2 291.6 206.8 293 206.8 278 206.8 263.7 207.2 264.8 202.3 264.8L198.8 264.8 198.8 278.2M96.6 270.8C96.7 271 97.1 271.2 97.5 271.2 98.4 271.2 100 273.3 100 274.6 100 274.9 100.2 275.2 100.4 275.2 100.6 275.2 100.8 276.5 100.8 278.2 100.8 279.9 100.6 281.2 100.4 281.2 100.2 281.2 100 281.7 100 282.2 100 282.8 99.8 283.2 99.6 283.2 99.4 283.2 99.2 283.4 99.2 283.6 99.2 284.3 98.1 285.2 97.4 285.2 97.1 285.2 96.8 285.4 96.8 285.6 96.8 285.8 96.1 286 95.2 286 94.3 286 93.6 285.8 93.6 285.6 93.6 285.4 93.4 285.2 93.1 285.2 92.5 285.2 91.4 284 90.5 282.5 89.9 281.4 89.8 274.4 90.4 274.4 90.6 274.4 90.8 274.1 90.8 273.8 90.8 273.1 92.5 271.2 93.2 271.2 93.4 271.2 93.6 271 93.6 270.8 93.6 270.6 94.2 270.4 95 270.4 95.7 270.4 96.5 270.6 96.6 270.8M143 271.8C145.4 274.1 145.1 274.4 139.8 274.4L135.2 274.4 135.5 273.3C135.8 272 136.5 271.2 137.4 271.2 137.7 271.2 138 271 138 270.8 138 269.7 141.7 270.4 143 271.8M224.2 270.8C224.3 271 224.7 271.2 225.1 271.2 226 271.2 227.6 273.3 227.6 274.6 227.6 274.9 227.8 275.2 228 275.2 228.2 275.2 228.4 276.5 228.4 278.2 228.4 279.9 228.2 281.2 228 281.2 227.8 281.2 227.6 281.7 227.6 282.2 227.6 282.8 227.4 283.2 227.2 283.2 227 283.2 226.8 283.4 226.8 283.6 226.8 284.3 225.7 285.2 225 285.2 224.7 285.2 224.4 285.4 224.4 285.6 224.4 285.8 223.7 286 222.8 286 221.9 286 221.2 285.8 221.2 285.6 221.2 285.4 221 285.2 220.8 285.2 220.1 285.2 218.4 283.3 218.4 282.6 218.4 282.3 218.2 282 218 282 217.8 282 217.6 280.5 217.6 278.2 217.6 275.9 217.8 274.4 218 274.4 218.2 274.4 218.4 274.1 218.4 273.8 218.4 271.9 223.3 269.4 224.2 270.8M281.2 282.4C281.2 284.8 277.7 286.8 274.8 286 273.6 285.7 273 282.8 274.2 282.8 274.5 282.8 274.8 282.6 274.8 282.4 274.8 282.2 275.1 282 275.6 282 276 282 276.5 281.8 276.6 281.6 277.3 280.5 281.2 281.2 281.2 282.4M295.6 299.6C295.6 299.8 295.3 300 294.9 300 293.5 300 292.4 301.8 292.4 304.2 292.4 305.4 292.6 306.4 292.8 306.4 293 306.4 293.2 306.7 293.2 307 293.2 307.3 293.5 307.6 293.8 307.6 294.1 307.6 294.4 307.8 294.4 308 294.4 308.2 295.5 308.4 296.8 308.4 298.1 308.4 299.2 308.2 299.2 308 299.2 307.8 299.6 307.5 300 307.4 300.4 307.3 300.8 306.8 300.8 306.4 300.8 306 301 305.5 301.2 305.4 301.4 305.3 301.6 304.5 301.6 303.8 301.6 303 301.4 302.4 301.2 302.4 301 302.4 300.8 302.1 300.8 301.8 300.8 300.8 299.8 300 298.6 300 298.1 300 297.6 299.8 297.6 299.6 297.6 299.4 297.2 299.2 296.6 299.2 296.1 299.2 295.6 299.4 295.6 299.6M93.2 300.4C93.2 300.6 92.5 300.8 91.6 300.8 90.7 300.8 90 301 90 301.2 90 301.4 89.6 301.6 89.2 301.6 88.8 301.6 88.4 301.8 88.4 302 88.4 302.2 88.1 302.4 87.7 302.4 87.3 302.4 86.7 302.8 86.4 303.2 86.1 303.6 85.6 304 85.3 304 84.6 304 82.8 305.8 82.8 306.4 82.8 306.7 82.5 307.2 82.1 307.6 81.2 308.4 79.7 311.4 79.4 313.2 78.7 316.5 79.2 326.4 80 326.4 80.2 326.4 80.4 326.9 80.5 327.6 80.7 328.2 81 329 81.4 329.3 81.7 329.7 82 330.1 82 330.4 82 331.6 87 335.6 88.6 335.6 88.9 335.6 89.2 335.8 89.2 336 89.2 336.2 89.9 336.4 90.8 336.4 91.7 336.4 92.4 336.6 92.4 336.8 92.4 337 94.1 337.2 96.8 337.2 99.3 337.2 101.3 337 101.4 336.8 101.5 336.6 102.2 336.4 102.8 336.4 103.5 336.4 104 336.2 104 336.1 104 335.9 104.5 335.6 105.1 335.5 106.3 335.2 110 332 110 331.2 110 331 109.4 330.1 108.6 329.4 107.8 328.6 107.2 327.8 107.2 327.6 107.2 326.8 104.2 327.2 103.6 328 103.3 328.4 102.7 328.8 102.3 328.8 101.9 328.8 101.6 329 101.6 329.2 101.6 329.4 101.2 329.6 100.6 329.6 100.1 329.6 99.5 329.8 99.4 330 99.3 330.2 98.1 330.4 96.8 330.4 95.5 330.4 94.4 330.2 94.4 330 94.4 329.8 94 329.6 93.6 329.6 93.2 329.6 92.8 329.4 92.8 329.2 92.8 329 92.6 328.8 92.4 328.8 91 328.8 87.6 323.7 87.6 321.6 87.6 321 87.4 320.3 87.2 320.2 87 320.1 86.8 319.5 86.8 319 86.8 318.5 87 317.9 87.2 317.8 87.4 317.7 87.6 316.8 87.6 315.8 87.6 314.8 87.8 314 88 314 88.2 314 88.4 313.7 88.4 313.4 88.4 312.2 91.4 308.4 92.4 308.4 92.6 308.4 92.8 308.2 92.9 307.9 93 307.6 94.2 307.4 96.8 307.4 99.4 307.4 100.6 307.6 100.7 307.9 100.8 308.2 101.2 308.4 101.6 308.4 102.1 308.4 102.4 308.6 102.4 308.8 102.4 309 102.8 309.2 103.2 309.2 103.6 309.2 104 309.4 104 309.6 104 309.8 104.6 310 105.2 310 106.5 310 107.6 309.2 107.6 308.3 107.6 308 108 307.6 108.4 307.3 109.9 306.4 107.9 302.4 106 302.4 105.8 302.4 105.6 302.2 105.6 302 105.6 301.8 105.3 301.6 104.8 301.6 104.4 301.6 103.9 301.4 103.8 301.2 103.7 301 102.9 300.8 102.2 300.8 101.5 300.8 100.7 300.6 100.6 300.4 100.5 300.2 98.7 300 96.8 300 94.7 300 93.2 300.2 93.2 300.4M190.9 303.8C190.6 304.1 190.4 305.1 190.4 306 190.4 306.8 190.2 307.7 190 307.8 189.8 307.9 189.6 308.7 189.6 309.4 189.6 310.6 189.5 310.8 188.7 310.8 186.4 310.8 185.6 311.6 185.6 314.1L185.6 316.4 187.2 316.4 188.8 316.4 188.8 324.2C188.8 329.1 188.9 332 189.2 332 189.4 332 189.6 332.5 189.6 333.1 189.6 333.8 189.9 334.5 190.4 334.8 190.9 335.1 191.5 335.6 191.8 335.8 193 336.9 194.2 337.2 196.8 337.2 198.4 337.2 199.6 337 199.6 336.8 199.6 336.6 200.1 336.4 200.8 336.4 201.5 336.4 202 336.2 202 336 202 335.9 202.4 335.6 202.8 335.5 203.4 335.3 203.6 334.9 203.6 334.1 203.6 333.4 203.3 332.7 202.8 332.4 202.4 332.1 202 331.5 202 331.1 202 330.5 201.7 330.4 200.2 330.4 199.2 330.4 198.4 330.6 198.4 330.8 198.4 331.4 197.6 331.3 197 330.6 196.5 330.2 196.4 328.6 196.4 323.2L196.4 316.4 199.6 316.4 202.8 316.4 202.8 313.6 202.8 310.8 199.6 310.8 196.4 310.8 196.4 307 196.4 303.2 193.9 303.2C192.3 303.2 191.2 303.4 190.9 303.8M277.3 303.8C277 304.1 276.8 305.1 276.8 306 276.8 306.8 276.6 307.7 276.4 307.8 276.2 307.9 276 308.7 276 309.4 276 310.6 275.9 310.8 275.1 310.8 272.8 310.8 272 311.6 272 314.1L272 316.4 273.6 316.4 275.2 316.4 275.2 324.2C275.2 329.1 275.3 332 275.6 332 275.8 332 276 332.5 276 333.1 276 333.8 276.3 334.5 276.8 334.8 277.3 335.1 277.9 335.6 278.2 335.9 278.5 336.2 278.9 336.4 279.2 336.4 279.4 336.4 279.6 336.6 279.6 336.8 279.6 337 280.9 337.2 282.8 337.2 284.7 337.2 286 337 286 336.8 286 336.6 286.5 336.4 287.2 336.4 287.9 336.4 288.4 336.2 288.4 336 288.4 335.9 288.8 335.6 289.2 335.5 289.8 335.3 290 334.9 290 334.1 290 333.4 289.7 332.7 289.2 332.4 288.8 332.1 288.4 331.5 288.4 331.1 288.4 330.3 285.3 330.1 284.5 330.9 283.2 332.1 282.8 330.3 282.8 323.2L282.8 316.4 287.8 316.4 292.8 316.4 292.9 326.3 293 336.2 296.5 336.3 300 336.4 300 323.6 300 310.8 291.4 310.8 282.8 310.8 282.8 307 282.8 303.2 280.3 303.2C278.7 303.2 277.6 303.4 277.3 303.8M119.8 310.4C119.7 310.6 119 310.8 118.4 310.8 117.7 310.8 117.2 311 117.2 311.2 117.2 311.4 116.8 311.6 116.4 311.6 116 311.6 115.6 311.8 115.6 312 115.6 312.2 115.4 312.4 115.1 312.4 114.5 312.4 112.4 314.1 112.4 314.6 112.4 314.8 112 315.5 111.6 316 111.2 316.6 110.8 317.4 110.8 317.9 110.8 318.4 110.6 318.8 110.4 318.8 110.2 318.8 110 320.7 110 323.8 110 326.7 110.2 328.9 110.4 329 110.6 329.1 110.8 329.5 110.8 329.8 110.8 331 113.4 334.4 114.9 335.1 115.7 335.5 116.4 335.9 116.4 336.1 116.4 336.3 116.9 336.4 117.6 336.4 118.3 336.4 118.8 336.6 118.8 336.8 118.8 337 120.3 337.2 122.6 337.2 124.9 337.2 126.4 337 126.4 336.8 126.4 336.6 126.9 336.4 127.6 336.4 128.3 336.4 128.8 336.2 128.8 336 128.8 335.8 129.2 335.6 129.6 335.6 130.6 335.6 133.2 333.1 134.5 331 135.9 328.6 135.9 319 134.5 316.7 133.3 314.7 130.2 311.6 129.4 311.6 129.1 311.6 128.8 311.4 128.8 311.2 128.8 311 128.2 310.8 127.4 310.8 126.7 310.8 125.9 310.6 125.8 310.4 125.7 310.2 124.3 310 122.8 310 121.3 310 119.9 310.2 119.8 310.4M150.8 310.4C150.8 310.6 150.3 310.8 149.6 310.8 148.9 310.8 148.4 311 148.4 311.2 148.4 311.4 148.1 311.6 147.6 311.6 147.2 311.6 146.8 311.8 146.7 312.1 146.5 312.4 146.3 312.3 145.8 311.7 145.2 310.9 144.8 310.8 142 310.8L138.8 310.8 138.8 323.6 138.8 336.4 142.8 336.4 146.8 336.4 146.8 327.7 146.8 318.9 147.8 318.1C148.4 317.6 149.1 317.2 149.4 317.2 149.7 317.2 150.1 317 150.2 316.8 150.3 316.6 150.9 316.4 151.4 316.4 152 316.4 152.4 316.6 152.4 316.8 152.4 317 152.6 317.2 152.8 317.2 154.2 317.2 154.4 318.2 154.4 327.4L154.4 336.4 158.4 336.4 162.4 336.4 162.4 326.8C162.4 320.7 162.3 317.2 162 317.2 161.8 317.2 161.6 316.7 161.6 316 161.6 315.3 161.4 314.8 161.2 314.8 161 314.8 160.8 314.5 160.8 314.2 160.8 313.4 159 311.6 158.2 311.6 157.9 311.6 157.6 311.4 157.6 311.2 157.6 311 157.3 310.8 156.8 310.8 156.4 310.8 155.9 310.6 155.8 310.4 155.7 310.2 154.5 310 153.2 310 151.9 310 150.8 310.2 150.8 310.4M172.6 310.4C172.5 310.6 171.8 310.8 171.2 310.8 170.5 310.8 170 311 170 311.2 170 311.4 169.7 311.6 169.4 311.6 168.6 311.6 166 314.2 166 315 166 315.3 165.8 315.7 165.6 315.8 165.4 315.9 165.2 317.2 165.2 318.6 165.2 320 165.4 321.3 165.6 321.4 165.8 321.5 166 321.9 166 322.2 166 323 167.8 324.8 168.6 324.8 168.9 324.8 169.2 325 169.2 325.2 169.2 325.4 169.6 325.6 170 325.6 170.4 325.6 170.8 325.8 170.8 326 170.8 326.2 171.3 326.4 172 326.4 172.7 326.4 173.2 326.6 173.2 326.8 173.2 327 173.7 327.2 174.4 327.2 175.1 327.2 175.6 327.4 175.6 327.6 175.6 327.7 176 328 176.4 328.1 177.9 328.5 177.2 331.2 175.5 331.2 175.1 331.2 174.8 331.4 174.8 331.6 174.8 331.8 174.4 332 174 332 173.6 332 173.2 331.8 173.2 331.6 173.2 331.4 172.8 331.2 172.4 331.2 172 331.2 171.6 331 171.6 330.8 171.6 330.6 171.2 330.4 170.8 330.4 170.4 330.4 170 330.2 170 330 170 329.2 167.2 329.6 166.2 330.6 164.1 332.6 164.5 335.6 166.8 335.6 167.3 335.6 167.6 335.8 167.6 336 167.6 336.2 168.1 336.4 168.8 336.4 169.4 336.4 170.1 336.6 170.2 336.8 170.3 337 172 337.2 174 337.2 176 337.2 177.7 337 177.8 336.8 177.9 336.6 178.5 336.4 179 336.4 179.6 336.4 180 336.2 180 336 180 335.8 180.3 335.6 180.7 335.6 181.5 335.6 183.2 334 183.2 333.3 183.2 333 183.4 332.8 183.6 332.8 183.8 332.8 184 332.4 184 331.8 184 331.3 184.2 330.8 184.4 330.8 184.6 330.8 184.8 329.8 184.8 328.6 184.8 327.4 184.6 326.4 184.4 326.4 184.2 326.4 184 326 184 325.5 184 323.8 180.4 321.2 178 321.2 177.6 321.2 177.2 321 177.2 320.8 177.2 320.6 176.7 320.4 176 320.4 175.3 320.4 174.8 320.2 174.8 320 174.8 319.8 174.5 319.6 174.1 319.6 172.8 319.6 172.4 318.3 173.3 317.3 174.2 316.4 178 315.9 178 316.8 178 317 178.4 317.2 178.8 317.2 179.2 317.2 179.6 317.4 179.6 317.6 179.6 318.2 182 318.1 182.6 317.4 182.9 317.1 183.2 316.6 183.2 316.2 183.2 315.9 183.4 315.6 183.6 315.6 183.8 315.6 184 315.1 184 314.5 184 313.3 182.5 311.6 181.4 311.6 181.1 311.6 180.8 311.4 180.8 311.2 180.8 311 180.3 310.8 179.6 310.8 179 310.8 178.3 310.6 178.2 310.4 178.1 310.2 176.8 310 175.4 310 174 310 172.7 310.2 172.6 310.4M216 310.4C216 310.6 215.6 310.8 215.2 310.8 214.8 310.8 214.4 311 214.4 311.2 214.4 311.4 214.2 311.6 213.8 311.6 213.5 311.6 213.1 311.9 212.8 312.3 212.3 312.8 212.2 312.8 212 312 211.8 311.1 211.6 311 208.5 310.9L205.2 310.8 205.2 323.6 205.2 336.4 209 336.4 212.8 336.4 212.8 328.7 212.8 321 214.2 319.5C215.4 318.1 215.7 318 217.9 318 221.1 318 221.6 317.4 221.6 313.7 221.6 311.4 221.5 310.8 221 310.8 220.7 310.8 220.4 310.6 220.4 310.4 220.4 310.2 219.4 310 218.2 310 217 310 216 310.2 216 310.4M259 310.4C258.9 310.6 258.3 310.8 257.8 310.8 256.9 310.8 255.4 311.4 254.8 312 254.7 312.1 254.2 312.4 253.6 312.7 247.6 315.8 248.7 335.6 254.9 335.6 255.3 335.6 255.6 335.8 255.6 336 255.6 336.2 256.1 336.4 256.6 336.4 257.2 336.4 257.6 336.6 257.6 336.8 257.6 337 259.1 337.2 261.2 337.2 263.3 337.2 264.8 337 264.8 336.8 264.8 336.6 265.3 336.4 266 336.4 266.7 336.4 267.2 336.2 267.2 336 267.2 335.8 267.5 335.6 267.9 335.6 269.1 335.6 271.2 333.6 271.2 332.5 271.2 330 267.8 328.1 266.1 329.6 265.6 330 265 330.4 264.8 330.4 264.6 330.4 264.4 330.6 264.4 330.8 264.4 331 263.5 331.2 262.4 331.2 261.3 331.2 260.4 331 260.4 330.8 260.4 330.6 260.1 330.4 259.6 330.4 259.2 330.4 258.7 329.9 258.3 329.2 258 328.5 257.7 328 257.5 328 257.3 328 257.2 327.3 257.2 326.4 257.2 325.5 257 324.8 256.8 324.8 256.6 324.8 256.4 324.4 256.4 323.8 256.4 323.3 256.6 322.7 256.8 322.6 257 322.5 257.2 321.8 257.2 321.1 257.2 319.1 260.3 316.4 262.6 316.4 263.6 316.4 264.4 316.6 264.4 316.8 264.4 317 264.7 317.2 265 317.2 265.3 317.2 265.6 317.4 265.6 317.6 265.6 318.7 269.5 318 270.1 316.8 270.4 316.1 270.7 315.6 270.9 315.6 271.9 315.6 271.1 313.2 270 312.7 269.3 312.4 268.8 312.1 268.8 311.9 268.8 311.7 268.4 311.6 268 311.6 267.6 311.6 267.2 311.4 267.2 311.2 267.2 311 266.7 310.8 266 310.8 265.3 310.8 264.8 310.6 264.8 310.4 264.8 310.2 263.6 310 262 310 260.5 310 259.1 310.2 259 310.4M313.6 310.4C313.3 310.6 312.5 310.8 311.9 310.8 311.3 310.8 310.8 311 310.8 311.2 310.8 311.4 310.4 311.6 310 311.6 309.6 311.6 309.2 311.8 309.2 312 309.2 312.2 309 312.4 308.8 312.4 308.2 312.4 306.7 314 306 315.3 305.7 315.9 305.3 316.4 305.1 316.4 305 316.4 304.8 316.9 304.8 317.6 304.8 318.3 304.6 318.8 304.4 318.8 304.2 318.8 304 320.8 304 324 304 327.2 304.2 329.2 304.4 329.2 304.6 329.2 304.8 329.7 304.8 330.2 304.8 330.8 305 331.2 305.2 331.2 305.4 331.2 305.6 331.5 305.6 331.8 305.6 332.1 305.8 332.4 306 332.4 306.2 332.4 306.4 332.6 306.4 332.8 306.4 333.5 308.9 335.6 309.7 335.6 310.1 335.6 310.4 335.8 310.4 336 310.4 336.2 310.8 336.4 311.4 336.4 311.9 336.4 312.5 336.6 312.6 336.8 312.7 337 314.5 337.2 316.6 337.2 318.9 337.2 320.4 337 320.4 336.8 320.4 336.6 320.9 336.4 321.4 336.4 322 336.4 322.4 336.2 322.4 336 322.4 335.8 322.7 335.6 323.1 335.6 323.5 335.6 324.3 335.2 324.8 334.8 325.3 334.4 325.9 334 326.1 334 326.2 334 326.4 333.8 326.4 333.5 326.4 333.2 326.8 332.7 327.2 332.4 327.6 332.1 328 331.5 328 331.1 328 330.7 328.2 330.4 328.4 330.4 328.6 330.4 328.8 329.9 328.8 329.2 328.8 328.5 329 328 329.2 328 329.4 328 329.6 326.3 329.6 323.8 329.6 321.3 329.4 319.6 329.2 319.6 329 319.6 328.8 319.1 328.8 318.4 328.8 317.7 328.6 317.2 328.4 317.2 328.2 317.2 328 316.9 328 316.6 328 315.8 323.8 311.6 323 311.6 322.7 311.6 322.4 311.4 322.4 311.2 322.4 311 321.8 310.8 321 310.8 320.3 310.8 319.5 310.6 319.4 310.4 319.1 309.9 314.4 309.9 313.6 310.4M344.4 310.4C344.4 310.6 343.9 310.8 343.2 310.8 342.5 310.8 342 311 342 311.2 342 311.4 341.7 311.6 341.2 311.6 340.8 311.6 340.4 311.8 340.3 312.1 340.1 312.4 339.9 312.3 339.4 311.7 338.8 310.9 338.4 310.8 335.8 310.8L332.8 310.8 332.8 323.6 332.8 336.4 336.6 336.4 340.4 336.4 340.4 327.8C340.4 318.6 340.7 317.2 343 317.2 343.3 317.2 343.7 317 343.8 316.8 344.3 316 346.4 316.5 347.9 317.9 348.3 318.2 348.4 320.5 348.4 327.4L348.4 336.4 352.2 336.4 356 336.4 356 326.8C356 320.9 355.8 317.2 355.6 317 355.4 316.9 355.2 316.3 355.2 315.8 355.2 315.2 355 314.8 354.8 314.8 354.6 314.8 354.4 314.5 354.4 314.2 354.4 313.8 354 313.1 353.4 312.6 352.9 312 352.2 311.6 351.8 311.6 351.5 311.6 351.2 311.4 351.2 311.2 351.2 311 350.9 310.8 350.4 310.8 350 310.8 349.5 310.6 349.4 310.4 349.3 310.2 348.1 310 346.8 310 345.5 310 344.4 310.2 344.4 310.4M222.8 320.3C222.8 327.2 223 330.2 223.4 331.4 224.1 333.5 226.7 336.4 227.9 336.4 228.4 336.4 228.9 336.6 229 336.8 229.1 337 230.6 337.2 232.2 337.2 233.8 337.2 235.3 337 235.4 336.8 235.5 336.6 236 336.4 236.5 336.4 236.9 336.4 237.5 336.1 237.9 335.8 238.2 335.5 238.6 335.2 238.8 335.2 239 335.2 239.2 335.5 239.2 335.8 239.2 336.3 239.9 336.4 242.8 336.4L246.4 336.4 246.4 323.6 246.4 310.8 242.4 310.8 238.4 310.8 238.4 319.7 238.4 328.7 237.4 329.5C236.8 330 236.2 330.4 236 330.4 235.8 330.4 235.6 330.6 235.6 330.8 235.6 331.6 232.8 331.2 231.8 330.2L230.8 329.2 230.8 320 230.8 310.8 226.8 310.8 222.8 310.8 222.8 320.3M124.5 316.9C125.6 317.5 126.9 318.8 127.5 319.9 128.1 321 128.2 327.2 127.6 327.2 127.4 327.2 127.2 327.5 127.2 327.8 127.2 329.1 124.6 331.2 123 331.2 121 331.2 118.8 329.9 118.8 328.6 118.8 328.3 118.6 328 118.4 328 118.2 328 118 327.4 118 326.6 118 325.8 117.8 324.8 117.5 324.4 117.1 323.8 117.1 323.5 117.5 323.1 117.8 322.9 118 322 118 321.3 118 317.9 121.8 315.4 124.5 316.9M318.5 316.9C321.1 318.4 321.4 319 321.4 323.8L321.4 328.2 319.9 329.7C318.4 331.2 314.8 332 314.8 330.8 314.8 330.6 314.5 330.4 314.2 330.4 313.4 330.4 312.4 329.4 312.4 328.6 312.4 328.3 312.2 328 312 328 311.8 328 311.6 327.2 311.6 326.2 311.6 325.2 311.4 324.4 311.2 324.4 311 324.4 310.8 324.1 310.8 323.8 310.8 323.5 311 323.2 311.2 323.2 311.4 323.2 311.6 322.4 311.6 321.4 311.6 320.4 311.8 319.6 312 319.6 312.2 319.6 312.4 319.3 312.4 319 312.4 318.7 312.6 318.4 312.8 318.4 313 318.4 313.2 318.1 313.2 317.8 313.2 317.5 313.6 317.2 314 317.2 314.4 317.2 314.8 317 314.8 316.8 314.8 316.2 317.4 316.3 318.5 316.9" fill="#44443f"/><path d="M148 52.4C147.3 53.1 146.8 53.7 146.9 53.8 147.4 54.3 150 52.4 150 51.6 150 50.9 149.3 51.2 148 52.4M262.1 52.9C262.3 53.6 264.3 55 264.7 54.7 265 54.3 263.2 52.4 262.5 52.4 262.2 52.4 262 52.6 262.1 52.9M143.7 55.8C142.6 57 142.6 57.3 143.7 57 144.7 56.6 145.6 55.8 145.6 55.2 145.6 54.5 144.6 54.8 143.7 55.8M266 56.1C266 56.7 268.3 58.2 268.7 57.9 268.9 57.6 267 55.6 266.4 55.6 266.2 55.6 266 55.8 266 56.1M140.2 58.5C138.7 60.4 138.7 60.4 139.3 60.4 140 60.4 141.6 59.1 141.6 58.5 141.6 57.9 140.7 57.9 140.2 58.5M270 59.3C270 59.9 272.3 61.4 272.7 61.1 272.9 60.8 271 58.8 270.4 58.8 270.2 58.8 270 59 270 59.3M136.6 61.8C135.7 62.6 135.2 63.3 135.3 63.4 135.6 63.7 137.9 62.1 138.2 61.3 138.6 60.2 138.1 60.4 136.6 61.8M273.6 62.3C273.6 62.7 275.8 64.4 276.4 64.4 277 64.4 276.9 64.1 275.8 63 274.9 62 273.6 61.7 273.6 62.3M132.1 65.2C131.3 65.9 130.9 66.8 131.4 66.8 131.9 66.8 134 65.1 134 64.8 134 64.2 133.1 64.4 132.1 65.2M277.6 65.2C277.6 65.7 279.6 67.6 280.1 67.6 280.8 67.6 280.3 66.6 279.3 65.7 278.1 64.7 277.6 64.6 277.6 65.2M128.1 68.3C127.6 68.9 127.3 69.5 127.5 69.7 127.7 70.2 130 68.5 130 67.8 130 66.9 129.1 67.1 128.1 68.3M281.6 68.4C281.6 69 282.3 69.6 283.7 70.6 285.4 71.7 285.5 71 283.9 69.4 282.4 68 281.6 67.6 281.6 68.4M124.1 71.4C123.1 72.5 123 72.8 123.7 72.8 124.4 72.8 126.4 71.3 126.4 70.8 126.4 70.1 125 70.5 124.1 71.4M285.6 71.7C285.6 72.1 287.6 74 288 74 288.2 74 289 74.6 289.8 75.4 291.1 76.6 292.4 77.2 292.4 76.6 292.4 76.1 290.4 74.4 289.9 74.4 289.6 74.4 288.7 73.7 288 72.8 286.6 71.3 285.6 70.8 285.6 71.7M120.1 75.1C118.8 76.4 118.5 77.4 119.7 76.4 120 76.2 120.7 75.6 121.3 75.2 121.9 74.7 122.4 74.2 122.4 74 122.4 73.2 121.4 73.7 120.1 75.1M149.9 75.4C149.5 75.6 149.2 76.1 149.2 76.3 149.2 77 150.3 76.9 150.5 76.3 150.6 76 151 76.1 151.7 76.7 152.2 77.2 152.9 77.6 153.1 77.6 154.1 77.6 153.6 76.6 152.2 75.7 150.6 74.7 150.8 74.7 149.9 75.4M116.1 78.2C115.2 79 114.9 79.6 115.2 79.8 115.4 79.9 115.6 79.9 115.6 79.6 115.6 79.4 115.8 79.2 116.1 79.2 116.7 79.2 118.4 77.6 118.4 77.1 118.4 76.4 117.3 77 116.1 78.2M147.2 77.5C147.2 77.7 146.8 78.1 146.2 78.3 145.1 78.8 144.9 79.6 145.8 79.6 146.5 79.6 148.4 78.1 148.4 77.5 148.4 77.3 148.1 77.2 147.8 77.2 147.5 77.2 147.2 77.4 147.2 77.5M154.4 78.2C154.4 78.6 156.4 80.4 156.8 80.4 157.5 80.4 157.2 79.6 156.3 78.8 155.4 78.1 154.4 77.8 154.4 78.2M294 78.8C294 79.1 296 80.4 296.6 80.4 296.7 80.4 296.4 80 295.9 79.4 295.1 78.4 294 78.1 294 78.8M112.8 80.5C110.9 82.3 110.5 83 111.6 82.6 112.8 82.2 114.4 80.8 114.4 80.1 114.4 79.4 114 79.5 112.8 80.5M144.4 79.9C144.4 80.1 144 80.4 143.5 80.6 142.6 81 142.1 82 142.8 82 143.5 82 145.2 80.1 144.8 79.8 144.6 79.7 144.4 79.7 144.4 79.9M157.6 80.6C157.6 81 159.6 82.8 160 82.8 160.8 82.8 160.4 82.1 159.2 81.2 158.1 80.4 157.6 80.2 157.6 80.6M298 81.7C298 82.2 300.3 83.8 300.6 83.5 300.9 83.3 298.9 81.2 298.5 81.2 298.2 81.2 298 81.4 298 81.7M139.5 83.5C138.4 84.2 138 85.2 138.8 85.2 139 85.2 139.7 84.8 140.2 84.2 141.8 82.7 141.4 82.3 139.5 83.5M108 84.6C107.5 85.1 107.2 85.7 107.3 85.9 107.7 86.2 109.7 84.8 109.7 84.2 109.6 83.4 108.9 83.6 108 84.6M161.6 83.8C161.6 84.2 162.7 85.2 163.2 85.2 163.9 85.2 163.7 84.5 162.8 84 162 83.5 161.6 83.5 161.6 83.8M302 84.9C302 85.4 303.6 86.8 304.3 86.8 305 86.8 304.9 86.5 303.8 85.4 302.8 84.3 302 84.1 302 84.9M135.9 86.3C135.1 87.2 135 87.6 135.6 87.6 136.2 87.6 137.2 86.6 137.2 86 137.2 85.4 136.6 85.5 135.9 86.3M164.8 86.3C164.8 86.9 166.3 88.4 166.9 88.4 167.2 88.4 167.9 88.9 168.5 89.6 169.4 90.8 170.4 91.2 170.4 90.4 170.4 89.8 169.4 88.8 168.9 88.8 168.7 88.8 167.9 88.2 167.1 87.4 165.7 86.1 164.8 85.6 164.8 86.3M104.1 87.9C103.5 88.4 103.2 89 103.4 89.1 103.7 89.4 105.7 87.9 105.9 87.3 106.2 86.5 105 86.8 104.1 87.9M305.6 88C305.6 88.4 308 90.2 308.3 89.9 308.6 89.6 306.7 87.6 306.1 87.6 305.8 87.6 305.6 87.8 305.6 88M132.5 89.1C131.1 90.1 130.8 90.8 131.7 90.8 132.4 90.8 134.6 88.5 134.1 88.3 133.9 88.2 133.2 88.5 132.5 89.1M100.1 91.1C99.5 91.6 99.2 92.2 99.3 92.3 99.6 92.6 102 90.9 102 90.4 102 89.7 101 90 100.1 91.1M129.6 91.3C128.5 91.9 128.1 92.8 128.9 92.8 129.6 92.8 130.8 91.8 130.8 91.2 130.8 90.7 130.8 90.7 129.6 91.3M309.7 91.3C309.8 91.5 310.2 91.9 310.6 92.2 311.1 92.4 311.5 92.8 311.7 93 311.8 93.2 312.1 93.3 312.2 93.1 312.5 92.8 310.6 90.8 310 90.8 309.7 90.8 309.6 91 309.7 91.3M171.6 91.5C171.6 92 173.5 93.6 174 93.6 174.8 93.6 174.4 92.9 173.2 92 172 91.1 171.6 91 171.6 91.5M96 94.2C95 95.2 95.6 96.1 96.6 95 97 94.7 97.4 94.4 97.6 94.4 97.8 94.4 98 94.1 98 93.8 98 92.9 97.1 93.1 96 94.2M125.5 94.4C124.4 95.3 124.1 96 124.8 96 125.2 96 127.2 94.2 127.2 93.8 127.2 93.4 126.6 93.6 125.5 94.4M313.6 94.2C313.6 94.7 315.6 96.4 316.2 96.4 316.7 96.4 316.3 95.5 315.3 94.6 314 93.5 313.6 93.4 313.6 94.2M175.6 94.6C175.6 95 176.7 96 177.2 96 177.7 96 177.7 95.5 177.1 94.9 176.6 94.4 175.6 94.2 175.6 94.6M92.5 97.1C91.9 97.6 91.6 98.1 91.7 98.3 92.1 98.6 94.4 97.1 94.4 96.5 94.4 95.7 93.5 96 92.5 97.1M121.9 97.2C121.1 98 121 98.4 121.6 98.4 122.2 98.4 123.2 97.4 123.2 96.8 123.2 96.2 122.7 96.3 121.9 97.2M178.8 97.1C178.8 97.6 180.6 99.2 181.1 99.2 181.3 99.2 181.9 99.7 182.5 100.4 183 101.1 183.6 101.6 183.9 101.6 184.8 101.6 184.2 100.2 183.1 99.7 182.5 99.4 181.5 98.6 180.8 98 179.7 96.8 178.8 96.5 178.8 97.1M317.3 97.3C317.5 98 319.9 99.7 320.1 99.3 320.5 98.8 318.6 96.8 317.8 96.8 317.4 96.8 317.2 97 317.3 97.3M88.5 100.2C87.5 101.3 87.4 101.6 88.1 101.6 88.8 101.6 90.4 100.2 90.4 99.6 90.4 98.9 89.5 99.2 88.5 100.2M117.9 100.4C117.3 101 116.2 101.9 115.6 102.3 114.9 102.7 114.4 103.2 114.4 103.5 114.4 104.4 115.4 104 116.3 102.8 116.9 102.1 117.6 101.6 117.9 101.6 118.5 101.6 118.9 101.2 119.9 99.9 120.9 98.7 119.3 99.1 117.9 100.4M321.3 100.5C321.5 101.2 323.5 102.6 323.8 102.3 324.1 102 322.2 100 321.6 100 321.3 100 321.2 100.2 321.3 100.5M185.6 102.4C185.6 102.7 185.9 103.1 186.2 103.4 186.9 104.1 187.6 104.2 187.6 103.5 187.6 103.1 186.4 102 185.9 102 185.7 102 185.6 102.2 185.6 102.4M84.5 103.4C83.5 104.5 83.4 104.8 84.1 104.8 84.8 104.8 86.4 103.4 86.4 102.8 86.4 102.1 85.5 102.4 84.5 103.4M325.2 103.6C325.2 104.2 326.8 105.6 327.5 105.6 328.2 105.6 328.1 105.3 327 104.2 326 103.1 325.2 102.9 325.2 103.6M189.1 104.7C188.8 105.1 190.7 107.2 191.3 107.2 191.9 107.2 191.4 105.9 190.6 105.4 190.2 105.2 189.7 104.8 189.6 104.7 189.4 104.5 189.2 104.5 189.1 104.7M111.7 105.2C110.8 105.6 110.1 106.6 110.5 107 110.8 107.3 112.2 106.4 112.7 105.5 113.3 104.7 113.1 104.7 111.7 105.2M80.3 106.8C79.2 107.9 78.9 108.8 79.6 108.8 79.8 108.8 80 108.7 80 108.5 80 108.3 80.6 107.8 81.4 107.2 82.2 106.7 82.8 106.1 82.8 105.9 82.8 105.2 81.4 105.7 80.3 106.8M329.2 106.7C329.2 107.3 330.9 108.7 331.9 109 332.4 109.1 332.8 109.5 332.8 109.8 332.8 110.4 335.9 112.6 336.2 112.3 336.6 112 334 109.2 333.4 109.2 333.1 109.2 332.3 108.6 331.5 107.8 330.1 106.5 329.2 106 329.2 106.7M107.9 108C107.1 108.5 107 109.2 107.6 109.2 107.9 109.2 108.3 108.9 108.6 108.6 109.6 107.6 109.2 107.3 107.9 108M192.9 108.1C193.1 108.8 194.3 109.4 194.7 109.1 194.9 108.9 194.7 108.5 194.2 108.2 193.3 107.5 192.7 107.4 192.9 108.1M76.5 109.9C75.8 110.7 75.3 111.4 75.4 111.5 75.7 111.9 78.8 109.6 78.8 109 78.8 108 77.9 108.4 76.5 109.9M104.3 110.9C103.1 111.9 102.9 112.4 103.8 112.4 104.4 112.4 106.4 110.7 106.4 110.2 106.4 109.7 105.3 110.1 104.3 110.9M195.6 110.2C195.6 110.6 197.6 112.4 198 112.4 198.7 112.4 198.4 111.6 197.5 110.8 196.6 110.1 195.6 109.8 195.6 110.2M72.9 112.6C72 113.6 71.7 114.4 72.3 114.4 72.8 114.4 74.8 112.5 74.8 112.1 74.8 111.3 73.9 111.6 72.9 112.6M101.1 113.4C100.3 114 100.2 114.8 100.9 114.8 101.2 114.8 102.8 113.3 102.8 113 102.8 112.7 101.6 113 101.1 113.4M200.2 114.2C201.5 115.6 202.4 116 202.4 115.3 202.4 114.6 200.3 112.8 199.5 112.8 198.9 112.8 199 113.1 200.2 114.2M337.6 113.7C337.6 114.2 339.9 115.8 340.2 115.5 340.5 115.3 338.5 113.2 338.1 113.2 337.8 113.2 337.6 113.4 337.6 113.7M68.9 115.8C67.9 116.8 67.7 117.6 68.4 117.6 68.9 117.6 71.2 115.6 71.2 115.1 71.2 114.5 69.8 114.9 68.9 115.8M203 115.6C202.7 116 204.5 118 205.2 118 205.4 118 205.6 117.7 205.6 117.4 205.6 117.1 205.5 116.8 205.3 116.8 205.1 116.8 204.6 116.4 204.1 116 203.6 115.5 203.1 115.4 203 115.6M97.5 116.3C96.4 117 96 118 96.8 118 97 118 97.7 117.6 98.2 117 99.8 115.5 99.4 115.1 97.5 116.3M341.6 116.9C341.6 117.5 343.9 119 344.3 118.7 344.5 118.4 342.6 116.4 342 116.4 341.8 116.4 341.6 116.6 341.6 116.9M93.9 119.1C93.1 120 93 120.4 93.6 120.4 94.2 120.4 95.2 119.4 95.2 118.8 95.2 118.2 94.6 118.3 93.9 119.1M206.8 118.8C206.8 119.4 207.8 120.4 208.4 120.4 209 120.4 208.9 119.5 208.1 119 207.2 118.3 206.8 118.3 206.8 118.8M64.8 119.4C64.5 119.7 64.4 120.1 64.5 120.2 64.8 120.5 66.4 119.7 66.4 119.2 66.4 118.6 65.4 118.7 64.8 119.4M345.6 120.2C345.6 120.5 346 120.9 346.4 121 346.8 121.1 347.2 121.4 347.2 121.6 347.2 121.8 347.5 122 347.8 122 348.6 122 348.6 121.7 347.4 120.6 346.3 119.5 345.6 119.3 345.6 120.2M91.2 121.1C91.2 121.3 90.8 121.7 90.2 121.9 89.1 122.4 88.9 123.2 89.8 123.2 90.5 123.2 92.5 121.4 92.1 121 91.8 120.7 91.2 120.7 91.2 121.1M209.6 121C209.6 121.4 211.6 123.2 212 123.2 212.7 123.2 212.5 122.6 211.4 121.7 210.4 120.8 209.6 120.5 209.6 121M61.6 121.9C59.8 123.1 59.4 123.6 59.9 124.1 60.3 124.4 60.4 124.4 60.4 124.1 60.4 123.9 60.8 123.5 61.2 123.4 62 123.2 63 121.7 62.7 121.4 62.6 121.3 62.1 121.5 61.6 121.9M349.2 123C349.2 123.3 349.3 123.6 349.5 123.6 349.7 123.6 350.2 124 350.7 124.4 351.9 125.5 352.3 124.6 351 123.4 349.9 122.3 349.2 122.1 349.2 123M212.8 123.4C212.8 123.8 214.8 125.6 215.2 125.6 216 125.6 215.6 124.4 214.6 124.2 214.1 124 213.6 123.8 213.6 123.6 213.6 123.4 213.4 123.2 213.2 123.2 213 123.2 212.8 123.3 212.8 123.4M57 125.4C56.2 126.2 55.6 126.9 55.7 127 56.1 127.4 58 126.4 58.4 125.6 59.2 124 58.6 124 57 125.4M86.9 124.5C86.3 125.1 86.3 125.6 86.8 125.6 87.3 125.6 88.4 124.6 88.4 124.2 88.4 123.8 87.4 124 86.9 124.5M353.2 126.1C353.2 126.7 355.5 128.2 355.9 127.9 356.1 127.6 354.2 125.6 353.6 125.6 353.4 125.6 353.2 125.8 353.2 126.1M83.5 127.1C82.4 127.8 82 128.8 82.8 128.8 83 128.8 83.7 128.4 84.2 127.8 85.8 126.3 85.4 125.9 83.5 127.1M216.8 126.6C216.8 127 217.9 128 218.4 128 218.9 128 218.9 127.5 218.3 126.9 217.8 126.4 216.8 126.2 216.8 126.6M52.5 129C51.5 130.1 51.4 130.4 52.1 130.4 52.9 130.4 54.9 128.6 54.5 128.3 54.1 127.8 53.4 128 52.5 129M220 129C220 129.4 222 131.2 222.4 131.2 222.6 131.2 223.3 131.7 223.9 132.4 225 133.7 226 134 226 133 226 132.7 225.3 132.1 224.4 131.8 223.5 131.4 222.8 130.8 222.8 130.6 222.8 130.4 222.3 129.9 221.6 129.5 220.4 128.8 220 128.6 220 129M357.2 129.2C357.2 129.8 358.8 131.2 359.5 131.2 360.2 131.2 360.1 130.9 359 129.8 358 128.7 357.2 128.5 357.2 129.2M79.9 130C79.1 130.8 79 131.2 79.6 131.2 80.2 131.2 81.2 130.2 81.2 129.6 81.2 129 80.7 129.1 79.9 130M49.3 131.8C48.7 132.5 48.6 133.6 49.3 133.6 49.8 133.6 50.8 132.4 50.8 131.7 50.8 131 49.9 131.1 49.3 131.8M76.6 132.6C75.7 133.2 76.1 134 77.1 133.4 77.8 132.9 78.2 132 77.7 132 77.5 132 77 132.3 76.6 132.6M360.4 132.8C360.4 133.8 361.3 133.7 361.5 132.7 361.6 132.3 361.4 132 361 132 360.7 132 360.4 132.3 360.4 132.8M96.4 135.2C96.1 135.6 95.5 136.1 95.2 136.2 93.6 136.7 91.6 139.2 92.8 139.2 93 139.2 93.2 139 93.2 138.9 93.2 138.7 93.7 138.3 94.2 138.1 94.8 137.8 95.2 137.3 95.2 137 95.2 136.6 95.4 136.5 95.6 136.6 95.8 136.7 96 136.7 96 136.5 96 136.3 96.5 136 97.2 135.7 97.9 135.5 98.4 135.1 98.4 134.8 98.4 134.1 97 134.4 96.4 135.2M203.2 136.3C203.2 136.9 204.1 137.6 204.9 137.6 205.7 137.6 205.7 137.6 205 136.8 204.3 136 203.2 135.7 203.2 136.3M206 138.5C206 138.8 206.5 139.3 207 139.6 207.6 139.9 208 140.3 208 140.5 208 140.7 208.2 140.8 208.4 140.8 209.1 140.8 208.8 140 207.8 139 206.7 137.9 206 137.7 206 138.5M89.7 140.2C89.1 140.8 89 141.6 89.5 141.6 90 141.6 91.2 140.5 91.2 140.1 91.2 139.4 90.3 139.5 89.7 140.2M210 141.7C210 142.3 212.3 143.8 212.7 143.5 212.9 143.2 211 141.2 210.4 141.2 210.2 141.2 210 141.4 210 141.7M86.1 143C85.1 144.1 85 144.4 85.7 144.4 86.4 144.4 88 143 88 142.5 88 141.7 87.1 142 86.1 143M213.2 144C213.2 144.6 214.8 146 215.5 146 216.2 146 216.1 145.7 215 144.6 214 143.5 213.2 143.3 213.2 144M82.1 146.4C81.5 147.1 80.9 147.6 80.6 147.6 78.7 147.6 78.8 146.1 78.8 191.7 78.8 232.8 78.9 235.6 79.6 235.6 79.9 235.6 80 217.5 80 192.5 80 144.6 79.8 148.7 82.7 147 83.4 146.6 84 146 84 145.7 84 144.8 83 145.2 82.1 146.4M217.2 147.4C217.2 147.7 217.4 148 217.5 148 217.7 148 218.3 148.3 218.7 148.7L219.6 149.5 219.6 192.5C219.6 217.5 219.8 235.6 220 235.6 220.7 235.6 220.8 232.8 220.8 192L220.8 149.6 219.4 148.2C217.9 146.7 217.2 146.4 217.2 147.4" fill="#a3a3a3"/><path d="M149.9 51.7C149.6 52.6 147.7 54 146.7 54 146.3 54 145.9 54.4 145.8 54.9 145.6 55.4 145.3 55.9 145 56.1 144.7 56.3 144.7 56.4 145.1 56.4 145.3 56.4 145.7 56.2 145.9 55.9 146.1 55.6 146.7 55.1 147.4 54.6 149.2 53.5 150.8 51.9 150.8 51.3 150.8 50.5 150.1 50.7 149.9 51.7M259.6 51.5C259.6 51.7 260 52.2 260.5 52.4 261 52.7 261.8 53.3 262.2 53.8 262.6 54.2 264.4 55.7 266 56.9 267.7 58.2 269.7 59.9 270.6 60.6 273.6 63.1 273.9 63.3 273.7 62.2 273.6 61.6 273.2 61.2 272.9 61.2 271.9 61.2 270.1 59.9 269.8 58.9 269.7 58.4 269.3 58 269 58 267.9 58 266.1 56.7 265.8 55.7 265.7 55.2 265.3 54.8 264.9 54.8 263.9 54.8 262.4 53.7 262 52.6 261.8 52 261.3 51.6 261 51.6 260.6 51.6 260.4 51.5 260.6 51.3 260.7 51.1 260.5 50.9 260.2 50.9 259.9 50.9 259.6 51.2 259.6 51.5M142.9 57.1C142.4 57.2 141.9 57.6 141.8 58.1 141.4 59.2 140.1 60.4 139.2 60.4 138.8 60.4 138.3 60.9 138.1 61.4L137.6 62.4 139.1 61.3C142.1 59.2 144.9 56.8 144.3 56.9 144 56.9 143.4 57 142.9 57.1M136.4 63C136.1 63.3 135.6 63.6 135.2 63.6 134.8 63.6 134.3 64 134.2 64.4 133.9 65.4 131.8 66.9 131.1 66.6 130.7 66.4 130.4 66.7 130.1 67.5 129.6 68.8 128.2 69.8 127.1 69.7 126.6 69.6 126.4 69.8 126.4 70.3 126.4 71.3 124.6 72.8 123.5 72.8 123.1 72.8 122.6 73.2 122.4 73.8 122.2 74.4 121.5 75.1 120.8 75.5 120.1 75.9 119.6 76.3 119.6 76.5 119.6 76.7 119.4 76.8 119.1 76.8 118.8 76.8 118.3 77.3 117.9 77.8 117.1 78.9 117.1 78.9 118 78.3 118.4 78 118.8 77.7 118.8 77.5 118.8 77.3 119.1 77.2 119.4 77.2 119.7 77.2 120 77.1 120.1 76.9 120.1 76.7 122.9 74.4 126.2 71.8 129.5 69.2 132.4 66.8 132.7 66.5 133 66.2 133.9 65.5 134.7 64.9 136.7 63.4 137.3 62.8 137.1 62.6 137 62.5 136.7 62.7 136.4 63M274.4 63.4C274.4 63.6 275.3 64.4 276.3 65.2 277.4 66 278.5 66.9 278.8 67.2 279.1 67.5 280.2 68.4 281.2 69.2 283.7 71.1 283.4 70.9 287 73.8 288.8 75.2 290.3 76.3 290.3 76.2 290.5 76 288.4 74 288 74 287.6 74 285.6 72.1 285.6 71.7 285.6 71.5 285.2 71.2 284.7 71.1 283.5 70.7 281.8 69.2 281.4 68.1 281.2 67.5 280.9 67.2 280.5 67.4 279.7 67.6 277.6 65.9 277.6 65 277.6 64.7 277.2 64.4 276.7 64.4 276.3 64.4 275.5 64.1 275.1 63.7 274.7 63.4 274.4 63.2 274.4 63.4M150 74.7C150 74.9 149.1 75.6 148 76.4 146.1 77.8 145.4 78.6 146.6 78.1 146.9 78 147.2 77.7 147.2 77.5 147.2 77.3 147.6 77.2 148.1 77.3 148.8 77.4 149 77.2 149.1 76.6 149.3 75.1 150.7 74.6 152 75.6 153.6 76.7 154 76.6 152.6 75.4 151.5 74.5 150 74.1 150 74.7M290.8 76.8C290.8 77.2 293.2 78.5 293.5 78.3 293.6 78.1 293.4 77.8 293.1 77.5 292.5 76.9 290.8 76.3 290.8 76.8M153.7 77.5C153.8 77.9 154.1 78.2 154.6 78.1 155 78 155.6 78.3 156 78.6 156.5 79 156.8 79.2 156.8 79 156.8 78.6 154.6 76.8 154.1 76.8 153.8 76.8 153.6 77.1 153.7 77.5M144.6 79.1C144.1 79.5 142.3 81 140.4 82.4 138.5 83.8 136.4 85.5 135.6 86.1 134.3 87.2 131.6 89.3 128 92 127.3 92.6 126.3 93.3 125.8 93.7 125.4 94.1 124.5 94.8 123.9 95.1 122.7 95.8 122.5 96.2 123.3 96.6 123.5 96.8 123.8 96.7 123.9 96.4 124.2 95.5 126.4 93.6 127.1 93.6 127.5 93.6 128.1 93.1 128.5 92.4 129.1 91.4 129.8 91 130.9 91.2 131.1 91.2 131.2 90.9 131.2 90.6 131.2 89.8 133.5 88.2 134.4 88.3 135 88.4 135.2 88.2 135.2 87.7 135.2 86.7 136.5 85.5 137.3 85.8 137.8 86 138 85.8 138.2 85.1 138.4 84.1 140.2 82.8 141.3 82.8 141.6 82.8 142.1 82.3 142.5 81.6 142.9 80.9 143.4 80.4 143.8 80.4 144.1 80.4 144.4 80.2 144.4 80 144.4 79.7 144.6 79.7 144.8 79.8 145 79.9 145.2 79.6 145.3 79.2 145.6 78.2 145.5 78.2 144.6 79.1M115.6 79.6C115.6 79.8 115.3 79.9 115 79.7 114.6 79.6 114.4 79.7 114.4 80.1 114.4 80.9 112.8 82.3 111.5 82.6 110.9 82.8 110.2 83.1 110 83.4 109.3 84.3 111.5 83.8 112.5 82.9 113 82.5 113.8 81.8 114.3 81.4 116.8 79.3 117 79.2 116.3 79.2 115.9 79.2 115.6 79.4 115.6 79.6M157.2 79.7C157.2 80 157.8 80.5 158.5 80.8 159.1 81.1 160 81.8 160.3 82.4 160.7 83.1 161.4 83.6 162.1 83.8 162.8 83.9 163.4 84.4 163.8 85.2 164.2 85.9 164.6 86.3 165 86.2 165.3 86 166.2 86.5 167 87.4 167.9 88.2 168.7 88.8 168.9 88.8 169.3 88.8 170 89.5 170.7 90.6 170.9 91 171.3 91.4 171.6 91.3 172.3 91.1 174.3 92.7 174.6 93.6 174.8 94.1 175.2 94.4 175.9 94.4 176.7 94.4 176.8 94.3 176.3 93.9 175 92.6 171.8 90.4 171.3 90.4 171 90.4 170.8 90.2 170.8 89.9 170.8 89.6 169.1 88.2 167.1 86.7 165.1 85.3 163 83.7 162.6 83.3 161.9 82.7 161 82 157.7 79.5 157.4 79.2 157.2 79.3 157.2 79.7M294.8 79.9C294.8 80.2 296.6 81.6 296.9 81.6 297 81.6 297.9 82.3 298.8 83.2 299.8 84.1 300.8 84.8 301 84.8 301.3 84.8 301.6 85.1 301.7 85.4 301.9 85.7 302.9 86.7 304.1 87.5 305.3 88.4 306.5 89.4 306.8 89.7 307.1 90 308 90.7 308.8 91.3 309.6 91.8 310.6 92.6 311 93.1 311.5 93.5 312.5 94.3 313.2 94.8 313.9 95.4 314.7 96 315 96.2 315.2 96.4 316.9 97.9 318.8 99.4 320.7 100.9 322.6 102.4 323 102.7 323.4 103.1 324.6 104 325.6 104.8 327.8 106.5 328.5 107.1 329.9 108.3 332.4 110.5 333.1 110.9 332.9 110 332.8 109.6 332.5 109.2 332.3 109.2 332.1 109.2 332.1 109 332.2 108.8 332.3 108.6 332.1 108.6 331.7 108.7 331.2 108.8 330.5 108.3 329.5 107.2 328.7 106.3 327.8 105.6 327.5 105.6 326.8 105.6 325.4 104.4 325.1 103.5 324.9 103.1 324.3 102.6 323.7 102.4 322.2 101.8 321.2 100.8 321.2 99.9 321.2 99.4 321 99.2 320.5 99.3 319.5 99.4 317.6 98.2 317.2 97 317 96.4 316.6 96.1 316.4 96.2 315.8 96.5 314 95.2 313.6 94.1 313.4 93.6 312.9 93.2 312.4 93.2 312 93.2 311.6 93 311.6 92.8 311.6 92.6 311.3 92.4 311 92.4 310.6 92.4 310.1 91.9 309.7 91.2 309.3 90.5 308.8 90 308.5 90 307.6 90 305.9 88.7 305.6 87.7 305.4 87.2 304.9 86.8 304.5 86.8 303.5 86.8 302.2 85.7 301.8 84.5 301.7 84 301.3 83.6 300.9 83.6 299.9 83.6 298.1 82.3 297.8 81.3 297.7 80.7 297.3 80.4 296.7 80.4 296 80.4 295.9 80.3 296.4 80 296.8 79.8 296.6 79.7 295.9 79.7 295.3 79.8 294.8 79.9 294.8 79.9M108.9 85.2C108.3 85.7 107.6 86 107.2 86 106.7 86 106.4 86.3 106.4 86.6 106.4 87.5 107.1 87.2 110 84.9 110.1 84.9 110.1 84.7 110 84.6 109.9 84.5 109.4 84.8 108.9 85.2M104.9 88.4C104.3 88.8 103.6 89.2 103.2 89.2 102.8 89.2 102.3 89.6 102.2 90 101.9 90.9 100 92.4 99.1 92.4 98.5 92.4 98 93.2 98 94.1 98 94.4 98.1 94.5 98.3 94.2 98.5 94 99.2 93.3 100 92.8 101.8 91.5 102.4 91 102.4 90.4 102.4 90.2 102.7 90 103 90 103.3 90 104.2 89.5 104.9 88.8 106.4 87.5 106.3 87.2 104.9 88.4M96.7 95C96.3 95.3 95.8 95.5 95.5 95.4 94.8 95.1 94.2 95.8 94.6 96.4 94.8 96.7 95.1 96.7 95.5 96.4 96.8 95.7 97.7 94.8 97.5 94.6 97.4 94.5 97 94.6 96.7 95M177.7 95.8C177.9 96.4 178.5 96.8 178.9 96.8 179.3 96.8 180.2 97.4 180.9 98 181.6 98.7 182.6 99.4 183.1 99.6 183.6 99.8 184.2 100.5 184.5 101.2 184.8 102.1 185.1 102.4 185.5 102.2 186.4 102 187.4 102.8 187.8 103.9 188 104.6 188.3 104.8 188.8 104.7 189.3 104.6 189.6 104.6 189.6 104.8 189.6 105 190 105.2 190.4 105.3 190.8 105.4 191.4 106 191.6 106.5 191.9 107.4 194 108.3 194 107.5 194 107.4 193.9 107.2 193.7 107.2 193.5 107.2 192.9 106.8 192.3 106.3 190.3 104.5 189 103.6 188.7 103.6 188.6 103.6 187.9 103.1 187.3 102.6 186 101.4 180.4 97 178.5 95.6L177.2 94.7 177.7 95.8M93 97.8C92.6 98.1 91.9 98.4 91.6 98.4 91.2 98.4 90.7 98.8 90.6 99.3 90.2 100.4 88.8 101.6 87.7 101.6 87.2 101.6 86.7 101.9 86.6 102.5 86.2 103.6 84.8 104.8 83.7 104.8 83.2 104.8 82.8 105.1 82.7 105.8L82.5 106.8 83.8 105.9C84.4 105.4 85.1 104.9 85.2 104.8 85.3 104.7 87.2 103.1 89.4 101.4 91.6 99.6 93.6 98 93.9 97.7 94.7 97 94 97.1 93 97.8M118.4 99.5C116.7 100.7 115 102.1 114.6 102.6 114.1 103.1 113.6 103.6 113.3 103.6 112.6 103.9 108 107.4 108 107.7 108 108.4 110.1 107.3 110.5 106.4 110.8 105.8 111.5 105.3 112.5 105 113.5 104.8 114.1 104.4 114.2 103.8 114.4 103.3 115 102.6 115.6 102.3 116.2 101.9 117.3 101 117.9 100.4 118.6 99.7 119.6 99.2 120.1 99.2 120.9 99.2 121.2 98.9 121.3 98.2 121.4 97.7 121.5 97.2 121.4 97.2 121.4 97.2 120 98.2 118.4 99.5M80.6 107.9C79.8 108.6 79.4 108.8 79.2 108.4 79 108.1 78.8 108.3 78.7 108.9L78.5 110 79.8 109.1C81.3 108 82.1 107.2 81.9 107 81.8 106.9 81.3 107.3 80.6 107.9M104 110.6C102.8 111.6 101.3 112.9 100.7 113.4 100 114 99.4 114.4 99.3 114.4 99.1 114.4 98.5 114.8 98 115.3 97.4 115.8 96.2 116.8 95.1 117.6 94.1 118.4 93.2 119.2 93.2 119.4 93.2 119.6 93.5 119.4 93.9 119.1 94.4 118.7 95 118.5 95.3 118.6 95.8 118.8 96 118.6 96.2 117.9 96.5 116.9 98.2 115.6 99.3 115.6 99.7 115.6 100.1 115.2 100.2 114.7 100.6 113.6 101.6 112.8 102.5 113 103 113.1 103.2 112.9 103.2 112.5 103.2 111.6 105.3 110 106.4 110 106.9 110 107.2 109.8 107.1 109.5 106.8 108.6 106.2 108.8 104 110.6M195.1 109.1C194.5 109.6 194.8 110 195.7 110 196.7 110 198.1 111.1 198.5 112.1 198.7 112.5 199.1 112.8 199.5 112.8 200.3 112.8 202.4 114.6 202.4 115.3 202.4 115.5 202.7 115.6 203 115.5 203.3 115.3 203.6 115.4 203.6 115.5 203.6 115.7 204 116.1 204.6 116.4 205.1 116.7 205.6 117.3 205.8 117.9 206 118.6 206.2 118.8 206.8 118.6 207.2 118.5 207.6 118.6 207.8 118.8 207.9 119 208.2 119.2 208.5 119.2 209 119.2 208.3 118.6 203.6 115 201.3 113.3 198.6 111.2 197.5 110.3 195.6 108.7 195.5 108.7 195.1 109.1M76.1 111.2C75.4 111.5 74.8 112 74.8 112.2 74.8 112.9 72.6 114.4 71.9 114.2 71.4 114 71.2 114.2 71.2 114.7 71.2 115.9 68.9 117.7 67.9 117.4 67.4 117.2 67.1 117.2 67.3 117.4 67.5 117.6 67.3 118 66.9 118.2 66.2 118.7 66.3 118.8 67 118.8 67.8 118.8 68.7 118.2 73.6 114.1 74.5 113.3 75.7 112.3 76.2 112 78.4 110.5 78.3 110 76.1 111.2M333.6 111C333.6 111.5 336.2 113.6 336.9 113.6 337.1 113.6 337.2 113.3 337.2 113 337.2 112.7 336.9 112.4 336.5 112.4 336 112.4 335.2 112 334.7 111.6 334.1 111.1 333.6 110.9 333.6 111M339 115.6C339.9 116.2 340.7 116.6 340.9 116.5 341.1 116.4 341.2 116.6 341.2 116.9 341.2 117.2 342.1 118.1 343.1 118.8 344.1 119.6 345.1 120.3 345.3 120.6 345.5 120.9 345.6 120.8 345.6 120.5 345.6 119.6 345.1 118.8 344.5 118.8 343.5 118.8 341.7 117.5 341.4 116.5 341.3 116 340.9 115.6 340.5 115.6 340.1 115.6 339.4 115.3 339 115 338.5 114.7 338 114.4 337.8 114.4 337.6 114.4 338.2 114.9 339 115.6M208.9 120.3C209 120.7 209.3 121 209.7 120.9 210.1 120.8 211 121.3 211.6 122 212.3 122.6 213 123.2 213.2 123.2 213.4 123.2 213.6 123.4 213.6 123.6 213.6 123.7 214 124 214.4 124.1 215.6 124.4 215.4 123.9 214.1 123.1 213.4 122.7 212.2 121.8 211.4 121 209.7 119.5 208.7 119.2 208.9 120.3M64.1 120.6C63.5 121 62.7 121.7 62.5 122.2L62 123.2 63.3 122.3C65.9 120.4 66.4 119.6 64.1 120.6M91.1 120.7C89.9 121.4 89.6 122.1 90.6 121.7 90.9 121.6 91.2 121.3 91.2 121.1 91.2 120.9 91.5 120.8 91.9 120.9 92.2 120.9 92.6 120.8 92.7 120.5 92.9 119.8 92.4 119.9 91.1 120.7M346 121.2C346 121.4 346.1 121.6 346.3 121.6 346.5 121.6 347.1 122 347.7 122.5 348.9 123.5 349 123.6 353.2 127 354.9 128.3 356.3 129.5 356.4 129.6 356.5 129.7 357.2 130.2 357.9 130.7 358.6 131.2 359.2 131.8 359.2 132 359.2 132.3 333.4 132.4 292.5 132.3L225.8 132.2 222.6 129.8C220.8 128.5 218.6 126.7 217.6 125.9 215.8 124.3 215.4 124.2 215.8 125.6 216 126.1 216.4 126.4 217 126.4 217.7 126.4 218.2 126.8 218.7 127.6 219.1 128.3 219.6 128.8 219.9 128.8 220.8 128.8 222.8 130.1 222.8 130.7 222.8 131 223 131.2 223.3 131.2 223.6 131.2 223.6 131.3 223.2 131.6 222.7 132 222.8 132 223.5 131.8 224.5 131.5 226 132.3 226 133.1 226 133.5 239.4 133.6 293.2 133.6 350.9 133.6 360.4 133.5 360.4 133 360.4 132.7 360.5 132.2 360.6 131.8 360.8 131.4 360.6 131.2 359.9 131.2 358.8 131.2 357.4 130.1 357 128.9 356.9 128.4 356.5 128 356.1 128 355 128 353.3 126.7 353 125.7 352.8 125 352.6 124.8 352 124.9 351.6 125 351.2 125 351.2 124.8 351.2 124.7 350.8 124.3 350.2 124 349.7 123.7 349.2 123.1 349.1 122.6 349 122 348.8 121.8 348.1 121.9 347.6 122 347.2 121.9 347.2 121.7 347.2 121.5 346.9 121.2 346.6 121.1 346.3 120.9 346 121 346 121.2M87.7 123.3C86.8 124 86 124.8 86 125.1 86 125.4 85.8 125.6 85.6 125.5 85.3 125.4 80.4 128.8 79.6 129.8 79.2 130.3 79.2 130.4 79.7 130.2 80.1 130 80.4 129.7 80.4 129.5 80.4 129.3 80.8 129.3 81.2 129.4 81.8 129.6 82 129.4 82.2 128.7 82.5 127.7 84.2 126.4 85.3 126.4 85.6 126.4 86.1 125.9 86.5 125.2 86.9 124.4 87.5 124 88.1 124 88.9 124 89.2 123.7 89.3 123 89.4 122.5 89.5 122 89.4 122 89.4 122 88.6 122.6 87.7 123.3M60.8 123.7C60.5 124 59.9 124.2 59.6 124.1 59.2 124 58.8 124.5 58.4 125.3 58 126.2 57.4 126.7 56.4 127 54.7 127.4 54.8 127.4 54.6 128.1 54.5 129 52.8 130.4 51.9 130.4 51.5 130.4 51.1 130.7 51 131.1 50.8 131.5 50.6 132.1 50.4 132.5 50.2 132.9 50 133.3 50 133.4 50 134.2 75.6 133.6 76.4 132.8 76.9 132.3 77.5 132 77.8 132.2 78.2 132.3 78.5 132.1 78.7 131.8 79.1 130.7 78.5 130.7 77.1 131.6 75.7 132.4 52.2 132.9 51.5 132.1 51.3 132 51.9 131.4 52.8 130.7 53.7 130.1 54.8 129.2 55.2 128.8 55.6 128.4 56.1 128 56.3 128 56.5 128 57.3 127.3 58.3 126.5 59.2 125.7 60.3 124.7 60.8 124.3 61.3 123.9 61.6 123.5 61.5 123.4 61.4 123.3 61 123.4 60.8 123.7M98.2 135.3C97.7 137.4 98.2 235.3 98.7 235.5 99.1 235.6 99.2 225.4 99.2 185 99.2 137.8 99.1 131.7 98.2 135.3M96.7 135.9C96.3 136 96 136.2 96 136.5 96 136.7 95.8 136.7 95.6 136.6 95.5 136.5 95.2 136.8 95.1 137.2 94.9 137.9 95 137.9 96.2 137.1 97.2 136.4 98.2 135.3 97.5 135.6 97.4 135.7 97.1 135.8 96.7 135.9M202 136.4C202 136.6 202.2 136.8 202.3 136.8 202.6 136.8 204.3 138 206.5 139.8 206.8 140.1 207.6 140.7 208.3 141.1 208.9 141.5 209.8 142.2 210.4 142.7 210.9 143.2 213.1 145 215.2 146.6L219 149.6 219.2 192.5 219.4 235.4 219.5 192.4 219.6 149.5 218.7 148.7C218.3 148.3 217.7 148 217.6 148 217.4 148 217.2 147.6 217 147 216.9 146.3 216.5 146 215.9 146 215 146 213.2 144.8 213.2 144.1 213.2 144 212.5 143.5 211.6 143.1 210.6 142.6 210 142 209.8 141.4 209.6 140.6 209.4 140.4 208.8 140.6 208.4 140.7 208 140.7 208 140.5 208 140.3 207.6 139.9 207 139.6 206.5 139.3 206 138.7 206 138.3 206 137.8 205.7 137.6 205 137.6 204.4 137.6 203.8 137.3 203.5 136.8 203 136 202 135.7 202 136.4M93.5 138.6C93.1 138.9 92.6 139.1 92.2 139 91.8 138.8 91.6 138.9 91.6 139.4 91.6 139.7 91.8 140 92.1 140 92.7 140 94.6 138.4 94.3 138.2 94.2 138.1 93.8 138.2 93.5 138.6M90.2 141.2C90.1 141.4 89.7 141.6 89.3 141.5 89 141.5 88.5 141.8 88.3 142.2 87.5 143.5 86.3 144.4 85.4 144.4 84.5 144.4 83.6 145.8 84.2 146.3 84.3 146.4 84.4 146.3 84.4 146.1 84.4 145.8 84.6 145.6 84.8 145.6 85.1 145.6 86.4 144.7 87.7 143.7 90.8 141.3 91.4 140.8 90.9 140.8 90.6 140.8 90.3 141 90.2 141.2M82.3 147.1C81.7 147.5 81.1 148 81 148.3 80.9 148.6 81.5 148.4 82.2 147.9 83 147.4 83.6 146.9 83.6 146.7 83.6 146.3 83.7 146.3 82.3 147.1M80.2 192.4C80.2 216.3 80.2 226 80.3 214.1 80.4 202.2 80.4 182.6 80.3 170.7 80.2 158.8 80.2 168.5 80.2 192.4" fill="#747474"/><path d="M152.8 96.5C152.8 96.8 153.1 97.3 153.4 97.6 153.9 98 154 98 154 97.5 154 97.2 153.7 96.7 153.4 96.4 152.9 96 152.8 96 152.8 96.5M146.6 97.4C146.2 98.5 146.4 98.9 147 98.4 147.7 97.9 147.8 96.8 147.2 96.8 147 96.8 146.8 97.1 146.6 97.4M156.7 99.5C156.4 99.9 157.5 101.4 157.8 101.1 158 101 158 100.5 157.8 100 157.5 99.2 157 98.9 156.7 99.5M139.5 103C139.4 103.3 139.4 103.6 139.5 103.8 139.8 104 140.8 103.3 140.8 102.8 140.8 102.2 139.7 102.4 139.5 103M163.6 104.7C163.6 105.1 163.9 105.7 164.2 106 164.9 106.6 164.9 106.1 164.2 104.8 163.7 103.9 163.6 103.8 163.6 104.7M136 106.2C136 106.5 136.2 106.8 136.4 106.8 136.6 106.8 136.8 106.5 136.8 106.2 136.8 105.9 136.6 105.6 136.4 105.6 136.2 105.6 136 105.9 136 106.2M133.6 108C132.6 108.2 131.9 109.6 132.8 109.6 133 109.6 133.2 109.4 133.2 109.2 133.2 109 133.5 108.8 134 108.8 134.4 108.8 134.9 108.5 135.2 108.2 135.8 107.5 135.4 107.5 133.6 108M170.8 110.5C170.8 111.2 171.5 112.2 171.8 111.9 172.2 111.6 171.6 110 171.2 110 171 110 170.8 110.2 170.8 110.5M128.9 111.2C129 111.5 129.3 111.8 129.6 111.9 129.9 112 130 111.9 129.9 111.6 129.8 111.3 129.5 111 129.2 110.9 128.9 110.8 128.8 110.9 128.9 111.2M125.9 113.5C125.7 113.6 125.6 114.1 125.6 114.6 125.6 115.3 125.7 115.3 126 114.4 126.4 113.5 126.3 113 125.9 113.5M174.4 113.6C174.4 114.3 175.5 115.3 175.8 114.8 175.9 114.6 175.9 114.4 175.6 114.4 175.4 114.4 175.2 114.1 175.2 113.8 175.2 113.5 175 113.2 174.8 113.2 174.6 113.2 174.4 113.4 174.4 113.6M177.6 115.9C177.6 116.1 177.9 116.5 178.2 117 178.8 117.8 179 117.4 178.6 116.2 178.3 115.6 177.6 115.3 177.6 115.9M122 116.6C121.7 117 121.7 117.2 122.2 117.3 122.6 117.5 122.8 117.3 122.8 116.8 122.8 115.9 122.7 115.8 122 116.6M181.6 119.1C181.6 119.3 181.9 119.8 182.2 120.2 182.8 121 183 120.6 182.6 119.4 182.3 118.8 181.6 118.6 181.6 119.1M184.8 121.5C184.8 122 185.6 123 185.8 122.7 186.1 122.4 185.6 121.2 185.2 121.2 185 121.2 184.8 121.3 184.8 121.5M114.5 122.6C114.4 123 114.4 123.3 114.5 123.5 114.8 123.8 116 122.9 116 122.4 116 121.7 114.8 122 114.5 122.6M190.8 130.8C190.8 133.7 190.9 134.4 191.4 134.4 191.9 134.4 192 133.7 192 130.8 192 127.9 191.9 127.2 191.4 127.2 190.9 127.2 190.8 127.9 190.8 130.8M232.4 151C232.4 151.5 239 151.6 289.6 151.6 340.2 151.6 346.8 151.5 346.8 151 346.8 150.5 340.2 150.4 289.6 150.4 239 150.4 232.4 150.5 232.4 151M251.6 168.8C251.6 169.1 267.8 169.2 299.4 169.2 331.2 169.2 347.2 169.1 347 168.8 346.8 168.5 330.5 168.4 299.2 168.4 267.7 168.4 251.6 168.5 251.6 168.8" fill="#d89c40"/></svg>